M48
; DRILL file {KiCad (6.0.4)} date Sat Jul 30 17:53:07 2022
; FORMAT={-:-/ absolute / inch / decimal}
; #@! TF.CreationDate,2022-07-30T17:53:07+10:00
; #@! TF.GenerationSoftware,Kicad,Pcbnew,(6.0.4)
; #@! TF.FileFunction,Plated,1,2,PTH
FMAT,2
INCH
; #@! TA.AperFunction,Plated,PTH,ComponentDrill
T1C0.0394
; #@! TA.AperFunction,Plated,PTH,ComponentDrill
T2C0.0400
%
G90
G05
T1
X4.1073Y-3.3465
X4.2073Y-3.3465
X4.2765Y-2.4403
X4.2765Y-2.5403
X4.3073Y-3.3465
X4.3765Y-2.4403
X4.3765Y-2.5403
X4.4073Y-3.3465
X4.4765Y-2.4403
X4.4765Y-2.5403
X4.5073Y-3.3465
X4.5765Y-2.4403
X4.5765Y-2.5403
X4.6765Y-2.4403
X4.6765Y-2.5403
X4.7765Y-2.4403
X4.7765Y-2.5403
X4.8765Y-2.4403
X4.8765Y-2.5403
X4.9765Y-2.4403
X4.9765Y-2.5403
X5.0765Y-2.4403
X5.0765Y-2.5403
X5.1765Y-2.4403
X5.1765Y-2.5403
X5.2765Y-2.4403
X5.2765Y-2.5403
X5.3765Y-2.4403
X5.3765Y-2.5403
X5.4626Y-3.0512
X5.4626Y-3.1512
X5.4765Y-2.4403
X5.4765Y-2.5403
X5.5765Y-2.4403
X5.5765Y-2.5403
X5.6299Y-3.0512
X5.6299Y-3.1512
X5.6765Y-2.4403
X5.6765Y-2.5403
X5.7765Y-2.4403
X5.7765Y-2.5403
X5.8765Y-2.4403
X5.8765Y-2.5403
X5.9765Y-2.4403
X5.9765Y-2.5403
X6.0433Y-2.8346
X6.0433Y-2.9346
X6.0433Y-3.0346
X6.0433Y-3.1346
X6.0433Y-3.2346
X6.0433Y-3.3346
X6.0765Y-2.4403
X6.0765Y-2.5403
X6.1765Y-2.4403
X6.1765Y-2.5403
X6.2283Y-2.7346
X6.2283Y-2.8346
X6.2283Y-2.9346
X6.2283Y-3.0346
X6.2283Y-3.1346
X6.2283Y-3.2346
X6.2283Y-3.3346
T2
X4.2303Y-2.8224
X4.2303Y-3.1224
X4.3303Y-2.8224
X4.3303Y-3.1224
X4.4303Y-2.8224
X4.4303Y-3.1224
X4.5303Y-2.8224
X4.5303Y-3.1224
X4.6303Y-2.8224
X4.6303Y-3.1224
X4.7303Y-2.8224
X4.7303Y-3.1224
X4.8303Y-2.8224
X4.8303Y-3.1224
X4.9303Y-2.8224
X4.9303Y-3.1224
T0
M30
