G04 #@! TF.GenerationSoftware,KiCad,Pcbnew,(6.0.4)*
G04 #@! TF.CreationDate,2022-07-30T17:53:10+10:00*
G04 #@! TF.ProjectId,rpi_hat,7270695f-6861-4742-9e6b-696361645f70,rev?*
G04 #@! TF.SameCoordinates,Original*
G04 #@! TF.FileFunction,Soldermask,Top*
G04 #@! TF.FilePolarity,Negative*
%FSLAX46Y46*%
G04 Gerber Fmt 4.6, Leading zero omitted, Abs format (unit mm)*
G04 Created by KiCad (PCBNEW (6.0.4)) date 2022-07-30 17:53:10*
%MOMM*%
%LPD*%
G01*
G04 APERTURE LIST*
G04 #@! TA.AperFunction,Profile*
%ADD10C,0.100000*%
G04 #@! TD*
%ADD11R,1.700000X1.700000*%
%ADD12O,1.700000X1.700000*%
%ADD13R,1.524000X1.524000*%
%ADD14C,1.524000*%
%ADD15C,3.000000*%
G04 APERTURE END LIST*
D10*
X162250000Y-89999995D02*
G75*
G03*
X165249995Y-87000000I-2600J3002595D01*
G01*
X100250000Y-62750000D02*
X100250000Y-87000000D01*
X165250000Y-62750000D02*
G75*
G03*
X162250000Y-59750000I-3000000J0D01*
G01*
X162250000Y-59750000D02*
X103250000Y-59750000D01*
X165250000Y-87000000D02*
X165250000Y-62750000D01*
X103250000Y-90000000D02*
X162250000Y-90000000D01*
X103250000Y-59750000D02*
G75*
G03*
X100250000Y-62750000I0J-3000000D01*
G01*
X100250000Y-87000000D02*
G75*
G03*
X103250000Y-90000000I3000000J0D01*
G01*
D11*
X108623600Y-64522400D03*
D12*
X108623600Y-61982400D03*
X111163600Y-64522400D03*
X111163600Y-61982400D03*
X113703600Y-64522400D03*
X113703600Y-61982400D03*
X116243600Y-64522400D03*
X116243600Y-61982400D03*
X118783600Y-64522400D03*
X118783600Y-61982400D03*
X121323600Y-64522400D03*
X121323600Y-61982400D03*
X123863600Y-64522400D03*
X123863600Y-61982400D03*
X126403600Y-64522400D03*
X126403600Y-61982400D03*
X128943600Y-64522400D03*
X128943600Y-61982400D03*
X131483600Y-64522400D03*
X131483600Y-61982400D03*
X134023600Y-64522400D03*
X134023600Y-61982400D03*
X136563600Y-64522400D03*
X136563600Y-61982400D03*
X139103600Y-64522400D03*
X139103600Y-61982400D03*
X141643600Y-64522400D03*
X141643600Y-61982400D03*
X144183600Y-64522400D03*
X144183600Y-61982400D03*
X146723600Y-64522400D03*
X146723600Y-61982400D03*
X149263600Y-64522400D03*
X149263600Y-61982400D03*
X151803600Y-64522400D03*
X151803600Y-61982400D03*
X154343600Y-64522400D03*
X154343600Y-61982400D03*
X156883600Y-64522400D03*
X156883600Y-61982400D03*
D13*
X125230000Y-71690000D03*
D14*
X122690000Y-71690000D03*
X120150000Y-71690000D03*
X117610000Y-71690000D03*
X115070000Y-71690000D03*
X112530000Y-71690000D03*
X109990000Y-71690000D03*
X107450000Y-71690000D03*
X107450000Y-79310000D03*
X109990000Y-79310000D03*
X112530000Y-79310000D03*
X115070000Y-79310000D03*
X117610000Y-79310000D03*
X120150000Y-79310000D03*
X122690000Y-79310000D03*
X125230000Y-79310000D03*
D11*
X104325000Y-85000000D03*
D12*
X106865000Y-85000000D03*
X109405000Y-85000000D03*
X111945000Y-85000000D03*
X114485000Y-85000000D03*
D15*
X103743600Y-63242400D03*
D11*
X158200000Y-84700000D03*
D12*
X158200000Y-82160000D03*
X158200000Y-79620000D03*
X158200000Y-77080000D03*
X158200000Y-74540000D03*
X158200000Y-72000000D03*
X158200000Y-69460000D03*
D11*
X143000000Y-77500000D03*
D12*
X143000000Y-80040000D03*
D11*
X138750000Y-77500000D03*
D12*
X138750000Y-80040000D03*
D15*
X161743600Y-63262400D03*
D11*
X153500000Y-72000000D03*
D12*
X153500000Y-74540000D03*
X153500000Y-77080000D03*
X153500000Y-79620000D03*
X153500000Y-82160000D03*
X153500000Y-84700000D03*
M02*
