G04 #@! TF.GenerationSoftware,KiCad,Pcbnew,(6.0.4)*
G04 #@! TF.CreationDate,2022-07-30T17:53:10+10:00*
G04 #@! TF.ProjectId,rpi_hat,7270695f-6861-4742-9e6b-696361645f70,rev?*
G04 #@! TF.SameCoordinates,Original*
G04 #@! TF.FileFunction,Copper,L1,Top*
G04 #@! TF.FilePolarity,Positive*
%FSLAX46Y46*%
G04 Gerber Fmt 4.6, Leading zero omitted, Abs format (unit mm)*
G04 Created by KiCad (PCBNEW (6.0.4)) date 2022-07-30 17:53:10*
%MOMM*%
%LPD*%
G01*
G04 APERTURE LIST*
G04 #@! TA.AperFunction,Profile*
%ADD10C,0.100000*%
G04 #@! TD*
G04 #@! TA.AperFunction,ComponentPad*
%ADD11R,1.700000X1.700000*%
G04 #@! TD*
G04 #@! TA.AperFunction,ComponentPad*
%ADD12O,1.700000X1.700000*%
G04 #@! TD*
G04 #@! TA.AperFunction,ComponentPad*
%ADD13R,1.524000X1.524000*%
G04 #@! TD*
G04 #@! TA.AperFunction,ComponentPad*
%ADD14C,1.524000*%
G04 #@! TD*
G04 #@! TA.AperFunction,WasherPad*
%ADD15C,3.000000*%
G04 #@! TD*
G04 #@! TA.AperFunction,Conductor*
%ADD16C,0.250000*%
G04 #@! TD*
G04 APERTURE END LIST*
D10*
X162250000Y-89999995D02*
G75*
G03*
X165249995Y-87000000I-2600J3002595D01*
G01*
X100250000Y-62750000D02*
X100250000Y-87000000D01*
X165250000Y-62750000D02*
G75*
G03*
X162250000Y-59750000I-3000000J0D01*
G01*
X162250000Y-59750000D02*
X103250000Y-59750000D01*
X165250000Y-87000000D02*
X165250000Y-62750000D01*
X103250000Y-90000000D02*
X162250000Y-90000000D01*
X103250000Y-59750000D02*
G75*
G03*
X100250000Y-62750000I0J-3000000D01*
G01*
X100250000Y-87000000D02*
G75*
G03*
X103250000Y-90000000I3000000J0D01*
G01*
D11*
X108623600Y-64522400D03*
D12*
X108623600Y-61982400D03*
X111163600Y-64522400D03*
X111163600Y-61982400D03*
X113703600Y-64522400D03*
X113703600Y-61982400D03*
X116243600Y-64522400D03*
X116243600Y-61982400D03*
X118783600Y-64522400D03*
X118783600Y-61982400D03*
X121323600Y-64522400D03*
X121323600Y-61982400D03*
X123863600Y-64522400D03*
X123863600Y-61982400D03*
X126403600Y-64522400D03*
X126403600Y-61982400D03*
X128943600Y-64522400D03*
X128943600Y-61982400D03*
X131483600Y-64522400D03*
X131483600Y-61982400D03*
X134023600Y-64522400D03*
X134023600Y-61982400D03*
X136563600Y-64522400D03*
X136563600Y-61982400D03*
X139103600Y-64522400D03*
X139103600Y-61982400D03*
X141643600Y-64522400D03*
X141643600Y-61982400D03*
X144183600Y-64522400D03*
X144183600Y-61982400D03*
X146723600Y-64522400D03*
X146723600Y-61982400D03*
X149263600Y-64522400D03*
X149263600Y-61982400D03*
X151803600Y-64522400D03*
X151803600Y-61982400D03*
X154343600Y-64522400D03*
X154343600Y-61982400D03*
X156883600Y-64522400D03*
X156883600Y-61982400D03*
D13*
X125230000Y-71690000D03*
D14*
X122690000Y-71690000D03*
X120150000Y-71690000D03*
X117610000Y-71690000D03*
X115070000Y-71690000D03*
X112530000Y-71690000D03*
X109990000Y-71690000D03*
X107450000Y-71690000D03*
X107450000Y-79310000D03*
X109990000Y-79310000D03*
X112530000Y-79310000D03*
X115070000Y-79310000D03*
X117610000Y-79310000D03*
X120150000Y-79310000D03*
X122690000Y-79310000D03*
X125230000Y-79310000D03*
D11*
X104325000Y-85000000D03*
D12*
X106865000Y-85000000D03*
X109405000Y-85000000D03*
X111945000Y-85000000D03*
X114485000Y-85000000D03*
D15*
X103743600Y-63242400D03*
D11*
X158200000Y-84700000D03*
D12*
X158200000Y-82160000D03*
X158200000Y-79620000D03*
X158200000Y-77080000D03*
X158200000Y-74540000D03*
X158200000Y-72000000D03*
X158200000Y-69460000D03*
D11*
X143000000Y-77500000D03*
D12*
X143000000Y-80040000D03*
D11*
X138750000Y-77500000D03*
D12*
X138750000Y-80040000D03*
D15*
X161743600Y-63262400D03*
D11*
X153500000Y-72000000D03*
D12*
X153500000Y-74540000D03*
X153500000Y-77080000D03*
X153500000Y-79620000D03*
X153500000Y-82160000D03*
X153500000Y-84700000D03*
D16*
X132658900Y-64889700D02*
X132658900Y-64522400D01*
X141133900Y-73364700D02*
X132658900Y-64889700D01*
X155849400Y-73364700D02*
X141133900Y-73364700D01*
X157024700Y-74540000D02*
X155849400Y-73364700D01*
X158200000Y-74540000D02*
X157024700Y-74540000D01*
X131483600Y-64522400D02*
X132658900Y-64522400D01*
X126904700Y-75904700D02*
X122690000Y-71690000D01*
X155849400Y-75904700D02*
X126904700Y-75904700D01*
X157024700Y-77080000D02*
X155849400Y-75904700D01*
X158200000Y-77080000D02*
X157024700Y-77080000D01*
X122063300Y-81223300D02*
X120150000Y-79310000D01*
X146104500Y-81223300D02*
X122063300Y-81223300D01*
X146532500Y-80795300D02*
X146104500Y-81223300D01*
X155849400Y-80795300D02*
X146532500Y-80795300D01*
X157024700Y-79620000D02*
X155849400Y-80795300D01*
X158200000Y-79620000D02*
X157024700Y-79620000D01*
X122498900Y-61615000D02*
X122498900Y-61982400D01*
X123306800Y-60807100D02*
X122498900Y-61615000D01*
X126920900Y-60807100D02*
X123306800Y-60807100D01*
X127579000Y-61465200D02*
X126920900Y-60807100D01*
X127579000Y-62311500D02*
X127579000Y-61465200D01*
X128450000Y-63182500D02*
X127579000Y-62311500D01*
X139643000Y-63182500D02*
X128450000Y-63182500D01*
X140356000Y-62469500D02*
X139643000Y-63182500D01*
X140356000Y-61584800D02*
X140356000Y-62469500D01*
X141133800Y-60807000D02*
X140356000Y-61584800D01*
X149820200Y-60807000D02*
X141133800Y-60807000D01*
X150628300Y-61615100D02*
X149820200Y-60807000D01*
X150628300Y-61982400D02*
X150628300Y-61615100D01*
X151803600Y-61982400D02*
X150628300Y-61982400D01*
X121323600Y-61982400D02*
X122498900Y-61982400D01*
X155518900Y-61615000D02*
X155518900Y-61982400D01*
X156326800Y-60807100D02*
X155518900Y-61615000D01*
X157420800Y-60807100D02*
X156326800Y-60807100D01*
X158090300Y-61476600D02*
X157420800Y-60807100D01*
X158090300Y-62550000D02*
X158090300Y-61476600D01*
X160286700Y-64746400D02*
X158090300Y-62550000D01*
X160286700Y-81783200D02*
X160286700Y-64746400D01*
X158639900Y-83430000D02*
X160286700Y-81783200D01*
X156473500Y-83430000D02*
X158639900Y-83430000D01*
X153660000Y-86243500D02*
X156473500Y-83430000D01*
X114049300Y-86243500D02*
X153660000Y-86243500D01*
X113309600Y-85503800D02*
X114049300Y-86243500D01*
X113309600Y-84640400D02*
X113309600Y-85503800D01*
X107979200Y-79310000D02*
X113309600Y-84640400D01*
X107450000Y-79310000D02*
X107979200Y-79310000D01*
X154343600Y-61982400D02*
X155518900Y-61982400D01*
X157250900Y-63157700D02*
X156883600Y-63157700D01*
X159833100Y-65739900D02*
X157250900Y-63157700D01*
X159833100Y-79725800D02*
X159833100Y-65739900D01*
X158763500Y-80795400D02*
X159833100Y-79725800D01*
X156992900Y-80795400D02*
X158763500Y-80795400D01*
X154452900Y-83335400D02*
X156992900Y-80795400D01*
X114015400Y-83335400D02*
X154452900Y-83335400D01*
X109990000Y-79310000D02*
X114015400Y-83335400D01*
X156883600Y-61982400D02*
X156883600Y-63157700D01*
X143000000Y-77500000D02*
X141824700Y-77500000D01*
X122690000Y-78177900D02*
X122690000Y-79310000D01*
X125689500Y-78177900D02*
X122690000Y-78177900D01*
X126207700Y-78696100D02*
X125689500Y-78177900D01*
X140628600Y-78696100D02*
X126207700Y-78696100D01*
X141824700Y-77500000D02*
X140628600Y-78696100D01*
X113662100Y-78177900D02*
X112530000Y-79310000D01*
X122690000Y-78177900D02*
X113662100Y-78177900D01*
X125960000Y-77500000D02*
X120150000Y-71690000D01*
X138750000Y-77500000D02*
X125960000Y-77500000D01*
X119050700Y-70590700D02*
X120150000Y-71690000D01*
X111089300Y-70590700D02*
X119050700Y-70590700D01*
X109990000Y-71690000D02*
X111089300Y-70590700D01*
X117418900Y-62349800D02*
X117418900Y-61982400D01*
X118226800Y-63157700D02*
X117418900Y-62349800D01*
X121647300Y-63157700D02*
X118226800Y-63157700D01*
X122688200Y-64198600D02*
X121647300Y-63157700D01*
X122688200Y-65050300D02*
X122688200Y-64198600D01*
X132177900Y-74540000D02*
X122688200Y-65050300D01*
X153500000Y-74540000D02*
X132177900Y-74540000D01*
X116243600Y-61982400D02*
X117418900Y-61982400D01*
X111163600Y-61982400D02*
X108623600Y-61982400D01*
X112338900Y-61615100D02*
X112338900Y-61982400D01*
X113612700Y-60341300D02*
X112338900Y-61615100D01*
X151888900Y-60341300D02*
X113612700Y-60341300D01*
X153168200Y-61620600D02*
X151888900Y-60341300D01*
X153168200Y-65603500D02*
X153168200Y-61620600D01*
X157024700Y-69460000D02*
X153168200Y-65603500D01*
X158200000Y-69460000D02*
X157024700Y-69460000D01*
X111163600Y-61982400D02*
X112338900Y-61982400D01*
X125960000Y-80040000D02*
X125230000Y-79310000D01*
X138750000Y-80040000D02*
X125960000Y-80040000D01*
X138750000Y-80040000D02*
X143000000Y-80040000D01*
X158567400Y-73175300D02*
X158200000Y-73175300D01*
X159375300Y-73983200D02*
X158567400Y-73175300D01*
X159375300Y-77585300D02*
X159375300Y-73983200D01*
X158705200Y-78255400D02*
X159375300Y-77585300D01*
X145959900Y-78255400D02*
X158705200Y-78255400D01*
X144175300Y-80040000D02*
X145959900Y-78255400D01*
X143000000Y-80040000D02*
X144175300Y-80040000D01*
X158200000Y-72000000D02*
X158200000Y-73175300D01*
G04 #@! TA.AperFunction,Conductor*
G36*
X112879514Y-60169407D02*
G01*
X112915478Y-60218907D01*
X112915478Y-60280093D01*
X112891327Y-60319504D01*
X112150257Y-61060574D01*
X112095740Y-61088351D01*
X112035308Y-61078780D01*
X112010249Y-61060574D01*
X111970477Y-61020802D01*
X111827738Y-60920855D01*
X111794784Y-60897780D01*
X111794782Y-60897779D01*
X111791239Y-60895298D01*
X111592930Y-60802825D01*
X111506380Y-60779634D01*
X111385754Y-60747312D01*
X111385752Y-60747312D01*
X111381577Y-60746193D01*
X111163600Y-60727123D01*
X110945623Y-60746193D01*
X110941448Y-60747312D01*
X110941446Y-60747312D01*
X110820820Y-60779634D01*
X110734270Y-60802825D01*
X110535962Y-60895298D01*
X110356723Y-61020802D01*
X110202002Y-61175523D01*
X110150398Y-61249222D01*
X110092830Y-61331438D01*
X110076498Y-61354762D01*
X110055524Y-61399742D01*
X110013797Y-61444487D01*
X109965801Y-61456900D01*
X109821399Y-61456900D01*
X109763208Y-61437993D01*
X109731677Y-61399742D01*
X109710702Y-61354762D01*
X109694371Y-61331438D01*
X109636802Y-61249222D01*
X109585198Y-61175523D01*
X109430477Y-61020802D01*
X109287738Y-60920855D01*
X109254784Y-60897780D01*
X109254782Y-60897779D01*
X109251239Y-60895298D01*
X109052930Y-60802825D01*
X108966380Y-60779634D01*
X108845754Y-60747312D01*
X108845752Y-60747312D01*
X108841577Y-60746193D01*
X108623600Y-60727123D01*
X108405623Y-60746193D01*
X108401448Y-60747312D01*
X108401446Y-60747312D01*
X108280820Y-60779634D01*
X108194270Y-60802825D01*
X107995962Y-60895298D01*
X107816723Y-61020802D01*
X107662002Y-61175523D01*
X107610398Y-61249222D01*
X107552830Y-61331438D01*
X107536498Y-61354762D01*
X107444025Y-61553070D01*
X107442907Y-61557243D01*
X107391691Y-61748384D01*
X107387393Y-61764423D01*
X107368323Y-61982400D01*
X107387393Y-62200377D01*
X107388512Y-62204552D01*
X107388512Y-62204554D01*
X107414961Y-62303261D01*
X107444025Y-62411730D01*
X107536498Y-62610038D01*
X107662002Y-62789277D01*
X107816723Y-62943998D01*
X107914735Y-63012627D01*
X107978451Y-63057241D01*
X107995961Y-63069502D01*
X108017736Y-63079656D01*
X108025287Y-63083177D01*
X108070035Y-63124905D01*
X108081710Y-63184966D01*
X108055852Y-63240419D01*
X108002338Y-63270082D01*
X107983449Y-63271901D01*
X107742082Y-63271901D01*
X107738239Y-63272510D01*
X107738234Y-63272510D01*
X107701383Y-63278347D01*
X107648296Y-63286754D01*
X107596099Y-63313350D01*
X107542197Y-63340814D01*
X107542195Y-63340815D01*
X107535258Y-63344350D01*
X107445550Y-63434058D01*
X107442015Y-63440995D01*
X107442014Y-63440997D01*
X107396910Y-63529518D01*
X107387954Y-63547096D01*
X107386735Y-63554790D01*
X107386735Y-63554791D01*
X107375401Y-63626350D01*
X107373100Y-63640881D01*
X107373101Y-65403918D01*
X107373710Y-65407761D01*
X107373710Y-65407766D01*
X107377315Y-65430528D01*
X107387954Y-65497704D01*
X107404098Y-65529388D01*
X107437596Y-65595131D01*
X107445550Y-65610742D01*
X107535258Y-65700450D01*
X107542195Y-65703985D01*
X107542197Y-65703986D01*
X107607937Y-65737482D01*
X107648296Y-65758046D01*
X107655990Y-65759265D01*
X107655991Y-65759265D01*
X107738235Y-65772291D01*
X107738237Y-65772291D01*
X107742081Y-65772900D01*
X108623486Y-65772900D01*
X109505118Y-65772899D01*
X109508961Y-65772290D01*
X109508966Y-65772290D01*
X109545817Y-65766453D01*
X109598904Y-65758046D01*
X109681557Y-65715932D01*
X109705003Y-65703986D01*
X109705005Y-65703985D01*
X109711942Y-65700450D01*
X109801650Y-65610742D01*
X109809605Y-65595131D01*
X109855710Y-65504644D01*
X109855710Y-65504643D01*
X109859246Y-65497704D01*
X109866521Y-65451775D01*
X109873491Y-65407765D01*
X109873491Y-65407763D01*
X109874100Y-65403919D01*
X109874100Y-65162553D01*
X109893007Y-65104362D01*
X109942507Y-65068398D01*
X110003693Y-65068398D01*
X110053193Y-65104362D01*
X110062824Y-65120713D01*
X110076498Y-65150038D01*
X110202002Y-65329277D01*
X110356723Y-65483998D01*
X110535961Y-65609502D01*
X110734270Y-65701975D01*
X110761824Y-65709358D01*
X110941446Y-65757488D01*
X110941448Y-65757488D01*
X110945623Y-65758607D01*
X111163600Y-65777677D01*
X111381577Y-65758607D01*
X111385752Y-65757488D01*
X111385754Y-65757488D01*
X111565376Y-65709358D01*
X111592930Y-65701975D01*
X111791239Y-65609502D01*
X111970477Y-65483998D01*
X112125198Y-65329277D01*
X112250702Y-65150038D01*
X112343175Y-64951730D01*
X112344732Y-64952456D01*
X112378240Y-64909568D01*
X112437055Y-64892703D01*
X112494550Y-64913630D01*
X112522686Y-64952354D01*
X112524025Y-64951730D01*
X112616498Y-65150038D01*
X112742002Y-65329277D01*
X112896723Y-65483998D01*
X113075961Y-65609502D01*
X113274270Y-65701975D01*
X113301824Y-65709358D01*
X113481446Y-65757488D01*
X113481448Y-65757488D01*
X113485623Y-65758607D01*
X113703600Y-65777677D01*
X113921577Y-65758607D01*
X113925752Y-65757488D01*
X113925754Y-65757488D01*
X114105376Y-65709358D01*
X114132930Y-65701975D01*
X114331239Y-65609502D01*
X114510477Y-65483998D01*
X114665198Y-65329277D01*
X114790702Y-65150038D01*
X114883175Y-64951730D01*
X114884732Y-64952456D01*
X114918240Y-64909568D01*
X114977055Y-64892703D01*
X115034550Y-64913630D01*
X115062686Y-64952354D01*
X115064025Y-64951730D01*
X115156498Y-65150038D01*
X115282002Y-65329277D01*
X115436723Y-65483998D01*
X115615961Y-65609502D01*
X115814270Y-65701975D01*
X115841824Y-65709358D01*
X116021446Y-65757488D01*
X116021448Y-65757488D01*
X116025623Y-65758607D01*
X116243600Y-65777677D01*
X116461577Y-65758607D01*
X116465752Y-65757488D01*
X116465754Y-65757488D01*
X116645376Y-65709358D01*
X116672930Y-65701975D01*
X116871239Y-65609502D01*
X117050477Y-65483998D01*
X117205198Y-65329277D01*
X117330702Y-65150038D01*
X117423175Y-64951730D01*
X117479807Y-64740377D01*
X117489745Y-64626782D01*
X117490310Y-64620327D01*
X117514217Y-64564005D01*
X117566663Y-64532492D01*
X117627615Y-64537825D01*
X117673793Y-64577966D01*
X117687721Y-64622481D01*
X117692191Y-64690689D01*
X117693604Y-64699610D01*
X117741134Y-64886759D01*
X117744154Y-64895287D01*
X117824986Y-65070625D01*
X117829517Y-65078472D01*
X117940948Y-65236144D01*
X117946822Y-65243022D01*
X118085132Y-65377757D01*
X118092155Y-65383444D01*
X118252699Y-65490717D01*
X118260654Y-65495035D01*
X118438046Y-65571249D01*
X118446657Y-65574047D01*
X118514306Y-65589354D01*
X118527203Y-65588169D01*
X118529600Y-65579451D01*
X118529600Y-64367400D01*
X118548507Y-64309209D01*
X118598007Y-64273245D01*
X118628600Y-64268400D01*
X118938600Y-64268400D01*
X118996791Y-64287307D01*
X119032755Y-64336807D01*
X119037600Y-64367400D01*
X119037600Y-65581474D01*
X119041722Y-65594159D01*
X119042893Y-65595010D01*
X119045400Y-65595224D01*
X119045789Y-65595131D01*
X119228626Y-65533066D01*
X119236888Y-65529388D01*
X119405355Y-65435041D01*
X119412809Y-65429918D01*
X119561250Y-65306461D01*
X119567661Y-65300050D01*
X119691118Y-65151609D01*
X119696241Y-65144155D01*
X119790588Y-64975688D01*
X119794266Y-64967426D01*
X119856330Y-64784591D01*
X119858441Y-64775799D01*
X119880856Y-64621204D01*
X119907918Y-64566329D01*
X119962066Y-64537840D01*
X120022618Y-64546619D01*
X120066446Y-64589314D01*
X120077455Y-64626782D01*
X120087393Y-64740377D01*
X120144025Y-64951730D01*
X120236498Y-65150038D01*
X120362002Y-65329277D01*
X120516723Y-65483998D01*
X120695961Y-65609502D01*
X120894270Y-65701975D01*
X120921824Y-65709358D01*
X121101446Y-65757488D01*
X121101448Y-65757488D01*
X121105623Y-65758607D01*
X121323600Y-65777677D01*
X121541577Y-65758607D01*
X121545752Y-65757488D01*
X121545754Y-65757488D01*
X121725376Y-65709358D01*
X121752930Y-65701975D01*
X121951239Y-65609502D01*
X122130477Y-65483998D01*
X122181785Y-65432690D01*
X122236302Y-65404913D01*
X122296734Y-65414484D01*
X122319561Y-65430528D01*
X122320840Y-65431729D01*
X122325088Y-65436975D01*
X122330590Y-65440885D01*
X122330591Y-65440886D01*
X122341182Y-65448413D01*
X122353838Y-65459107D01*
X127076718Y-70181988D01*
X131796513Y-74901783D01*
X131799371Y-74904763D01*
X131839784Y-74948712D01*
X131845524Y-74952271D01*
X131875940Y-74971131D01*
X131883623Y-74976411D01*
X131917504Y-75002127D01*
X131923783Y-75004613D01*
X131932614Y-75008110D01*
X131948333Y-75016015D01*
X131962150Y-75024582D01*
X131968628Y-75026464D01*
X131968630Y-75026465D01*
X131987264Y-75031879D01*
X132003014Y-75036455D01*
X132011820Y-75039470D01*
X132051372Y-75055129D01*
X132058085Y-75055835D01*
X132058091Y-75055836D01*
X132067535Y-75056829D01*
X132084804Y-75060217D01*
X132095429Y-75063304D01*
X132095435Y-75063305D01*
X132100412Y-75064751D01*
X132105582Y-75065131D01*
X132105584Y-75065131D01*
X132108811Y-75065368D01*
X132108818Y-75065368D01*
X132110612Y-75065500D01*
X132144853Y-75065500D01*
X132155199Y-75066042D01*
X132194561Y-75070179D01*
X132214031Y-75066886D01*
X132230540Y-75065500D01*
X152302201Y-75065500D01*
X152360392Y-75084407D01*
X152391923Y-75122658D01*
X152412898Y-75167638D01*
X152415379Y-75171181D01*
X152415380Y-75171183D01*
X152451954Y-75223416D01*
X152469843Y-75281928D01*
X152449923Y-75339780D01*
X152399803Y-75374874D01*
X152370858Y-75379200D01*
X127163377Y-75379200D01*
X127105186Y-75360293D01*
X127093373Y-75350204D01*
X124764673Y-73021504D01*
X124736896Y-72966987D01*
X124746467Y-72906555D01*
X124789732Y-72863290D01*
X124834677Y-72852500D01*
X126000628Y-72852499D01*
X126023518Y-72852499D01*
X126027361Y-72851890D01*
X126027366Y-72851890D01*
X126074133Y-72844483D01*
X126117304Y-72837646D01*
X126201129Y-72794935D01*
X126223403Y-72783586D01*
X126223405Y-72783585D01*
X126230342Y-72780050D01*
X126320050Y-72690342D01*
X126339510Y-72652151D01*
X126374110Y-72584244D01*
X126374110Y-72584243D01*
X126377646Y-72577304D01*
X126379920Y-72562950D01*
X126391891Y-72487365D01*
X126391891Y-72487363D01*
X126392500Y-72483519D01*
X126392499Y-70896482D01*
X126377646Y-70802696D01*
X126320050Y-70689658D01*
X126230342Y-70599950D01*
X126223405Y-70596415D01*
X126223403Y-70596414D01*
X126124244Y-70545890D01*
X126124243Y-70545890D01*
X126117304Y-70542354D01*
X126109610Y-70541135D01*
X126109609Y-70541135D01*
X126027365Y-70528109D01*
X126027363Y-70528109D01*
X126023519Y-70527500D01*
X125230102Y-70527500D01*
X124436482Y-70527501D01*
X124432639Y-70528110D01*
X124432634Y-70528110D01*
X124395783Y-70533947D01*
X124342696Y-70542354D01*
X124303548Y-70562301D01*
X124236597Y-70596414D01*
X124236595Y-70596415D01*
X124229658Y-70599950D01*
X124139950Y-70689658D01*
X124136415Y-70696595D01*
X124136414Y-70696597D01*
X124091187Y-70785360D01*
X124082354Y-70802696D01*
X124081135Y-70810390D01*
X124081135Y-70810391D01*
X124078302Y-70828278D01*
X124067500Y-70896481D01*
X124067501Y-71574843D01*
X124067501Y-72085324D01*
X124048594Y-72143515D01*
X123999094Y-72179479D01*
X123937908Y-72179479D01*
X123898497Y-72155328D01*
X123838466Y-72095297D01*
X123810689Y-72040780D01*
X123814723Y-71993472D01*
X123825222Y-71962543D01*
X123828222Y-71941851D01*
X123855460Y-71754001D01*
X123855461Y-71753993D01*
X123855880Y-71751101D01*
X123856665Y-71721145D01*
X123857404Y-71692914D01*
X123857404Y-71692909D01*
X123857480Y-71690000D01*
X123856945Y-71684172D01*
X123838345Y-71481762D01*
X123837930Y-71477244D01*
X123795692Y-71327478D01*
X123781168Y-71275981D01*
X123781168Y-71275980D01*
X123779936Y-71271613D01*
X123773710Y-71258987D01*
X123687451Y-71084070D01*
X123687449Y-71084066D01*
X123685440Y-71079993D01*
X123557607Y-70908803D01*
X123400717Y-70763776D01*
X123379057Y-70750109D01*
X123223862Y-70652189D01*
X123220025Y-70649768D01*
X123021582Y-70570597D01*
X122812035Y-70528916D01*
X122703958Y-70527501D01*
X122602940Y-70526178D01*
X122602935Y-70526178D01*
X122598401Y-70526119D01*
X122593926Y-70526888D01*
X122593925Y-70526888D01*
X122514196Y-70540588D01*
X122387834Y-70562301D01*
X122187387Y-70636250D01*
X122183488Y-70638569D01*
X122183483Y-70638572D01*
X122085952Y-70696597D01*
X122003772Y-70745489D01*
X122000357Y-70748484D01*
X122000354Y-70748486D01*
X121958308Y-70785360D01*
X121843140Y-70886360D01*
X121710869Y-71054145D01*
X121708756Y-71058160D01*
X121708756Y-71058161D01*
X121639372Y-71190039D01*
X121611389Y-71243225D01*
X121610045Y-71247554D01*
X121567887Y-71383325D01*
X121548032Y-71447267D01*
X121547498Y-71451777D01*
X121547498Y-71451778D01*
X121532933Y-71574843D01*
X121522920Y-71659439D01*
X121536894Y-71872634D01*
X121538010Y-71877027D01*
X121538010Y-71877029D01*
X121558586Y-71958046D01*
X121589485Y-72079713D01*
X121591387Y-72083838D01*
X121591387Y-72083839D01*
X121619628Y-72145098D01*
X121626820Y-72205859D01*
X121596923Y-72259243D01*
X121541358Y-72284859D01*
X121481349Y-72272922D01*
X121459718Y-72256549D01*
X121298466Y-72095297D01*
X121270689Y-72040780D01*
X121274723Y-71993472D01*
X121285222Y-71962543D01*
X121288222Y-71941851D01*
X121315460Y-71754001D01*
X121315461Y-71753993D01*
X121315880Y-71751101D01*
X121316665Y-71721145D01*
X121317404Y-71692914D01*
X121317404Y-71692909D01*
X121317480Y-71690000D01*
X121316945Y-71684172D01*
X121298345Y-71481762D01*
X121297930Y-71477244D01*
X121255692Y-71327478D01*
X121241168Y-71275981D01*
X121241168Y-71275980D01*
X121239936Y-71271613D01*
X121233710Y-71258987D01*
X121147451Y-71084070D01*
X121147449Y-71084066D01*
X121145440Y-71079993D01*
X121017607Y-70908803D01*
X120860717Y-70763776D01*
X120839057Y-70750109D01*
X120683862Y-70652189D01*
X120680025Y-70649768D01*
X120481582Y-70570597D01*
X120272035Y-70528916D01*
X120163958Y-70527501D01*
X120062940Y-70526178D01*
X120062935Y-70526178D01*
X120058401Y-70526119D01*
X120053926Y-70526888D01*
X120053925Y-70526888D01*
X119974196Y-70540588D01*
X119847834Y-70562301D01*
X119843574Y-70563873D01*
X119839191Y-70565047D01*
X119838612Y-70562885D01*
X119786038Y-70564980D01*
X119742855Y-70539686D01*
X119432099Y-70228930D01*
X119429229Y-70225937D01*
X119393384Y-70186956D01*
X119388816Y-70181988D01*
X119352665Y-70159573D01*
X119344979Y-70154291D01*
X119316470Y-70132651D01*
X119316469Y-70132651D01*
X119311096Y-70128572D01*
X119304825Y-70126089D01*
X119304823Y-70126088D01*
X119295983Y-70122588D01*
X119280258Y-70114679D01*
X119272186Y-70109674D01*
X119272184Y-70109673D01*
X119266450Y-70106118D01*
X119225603Y-70094250D01*
X119216782Y-70091230D01*
X119183506Y-70078056D01*
X119183503Y-70078055D01*
X119177228Y-70075571D01*
X119170515Y-70074865D01*
X119170509Y-70074864D01*
X119161065Y-70073871D01*
X119143796Y-70070483D01*
X119133171Y-70067396D01*
X119133165Y-70067395D01*
X119128188Y-70065949D01*
X119123018Y-70065569D01*
X119123016Y-70065569D01*
X119119789Y-70065332D01*
X119119782Y-70065332D01*
X119117988Y-70065200D01*
X119083746Y-70065200D01*
X119073400Y-70064658D01*
X119034038Y-70060521D01*
X119014569Y-70063814D01*
X118998059Y-70065200D01*
X111103177Y-70065200D01*
X111099031Y-70065113D01*
X111039381Y-70062613D01*
X111032809Y-70064154D01*
X111032803Y-70064155D01*
X110997967Y-70072326D01*
X110988797Y-70074026D01*
X110953340Y-70078883D01*
X110953339Y-70078883D01*
X110946654Y-70079799D01*
X110940459Y-70082480D01*
X110940458Y-70082480D01*
X110931738Y-70086253D01*
X110915032Y-70091778D01*
X110899207Y-70095490D01*
X110893292Y-70098742D01*
X110861922Y-70115987D01*
X110853548Y-70120089D01*
X110820714Y-70134298D01*
X110820713Y-70134299D01*
X110814517Y-70136980D01*
X110809271Y-70141228D01*
X110801886Y-70147208D01*
X110787285Y-70157020D01*
X110773037Y-70164853D01*
X110765295Y-70171536D01*
X110741081Y-70195750D01*
X110733388Y-70202677D01*
X110702625Y-70227588D01*
X110698713Y-70233093D01*
X110698711Y-70233095D01*
X110691187Y-70243682D01*
X110680493Y-70256338D01*
X110396243Y-70540588D01*
X110341726Y-70568365D01*
X110306927Y-70567682D01*
X110112035Y-70528916D01*
X110003958Y-70527501D01*
X109902940Y-70526178D01*
X109902935Y-70526178D01*
X109898401Y-70526119D01*
X109893926Y-70526888D01*
X109893925Y-70526888D01*
X109814196Y-70540588D01*
X109687834Y-70562301D01*
X109487387Y-70636250D01*
X109483488Y-70638569D01*
X109483483Y-70638572D01*
X109385952Y-70696597D01*
X109303772Y-70745489D01*
X109300357Y-70748484D01*
X109300354Y-70748486D01*
X109258308Y-70785360D01*
X109143140Y-70886360D01*
X109010869Y-71054145D01*
X109008756Y-71058160D01*
X109008756Y-71058161D01*
X108939372Y-71190039D01*
X108911389Y-71243225D01*
X108910045Y-71247554D01*
X108867887Y-71383325D01*
X108848032Y-71447267D01*
X108847498Y-71451777D01*
X108847498Y-71451778D01*
X108832933Y-71574843D01*
X108822920Y-71659439D01*
X108836894Y-71872634D01*
X108838010Y-71877027D01*
X108838010Y-71877029D01*
X108858586Y-71958046D01*
X108889485Y-72079713D01*
X108978933Y-72273740D01*
X109102241Y-72448218D01*
X109255281Y-72597302D01*
X109259056Y-72599824D01*
X109259058Y-72599826D01*
X109340689Y-72654370D01*
X109432927Y-72716001D01*
X109629229Y-72800339D01*
X109705155Y-72817520D01*
X109833187Y-72846491D01*
X109833192Y-72846492D01*
X109837613Y-72847492D01*
X109944357Y-72851686D01*
X110046568Y-72855702D01*
X110046569Y-72855702D01*
X110051101Y-72855880D01*
X110262543Y-72825222D01*
X110266842Y-72823763D01*
X110266845Y-72823762D01*
X110460556Y-72758006D01*
X110464857Y-72756546D01*
X110651268Y-72652151D01*
X110815533Y-72515533D01*
X110952151Y-72351268D01*
X111056546Y-72164857D01*
X111089202Y-72068655D01*
X111123762Y-71966845D01*
X111123763Y-71966842D01*
X111125222Y-71962543D01*
X111128222Y-71941851D01*
X111155460Y-71754001D01*
X111155461Y-71753993D01*
X111155880Y-71751101D01*
X111156665Y-71721145D01*
X111157404Y-71692914D01*
X111157404Y-71692909D01*
X111157480Y-71690000D01*
X111156945Y-71684172D01*
X111138345Y-71481762D01*
X111137930Y-71477244D01*
X111130748Y-71451778D01*
X111111442Y-71383325D01*
X111113844Y-71322187D01*
X111136721Y-71286448D01*
X111277973Y-71145196D01*
X111332490Y-71117419D01*
X111347977Y-71116200D01*
X111356428Y-71116200D01*
X111414619Y-71135107D01*
X111450583Y-71184607D01*
X111450975Y-71244558D01*
X111407887Y-71383325D01*
X111388032Y-71447267D01*
X111387498Y-71451777D01*
X111387498Y-71451778D01*
X111372933Y-71574843D01*
X111362920Y-71659439D01*
X111376894Y-71872634D01*
X111378010Y-71877027D01*
X111378010Y-71877029D01*
X111398586Y-71958046D01*
X111429485Y-72079713D01*
X111518933Y-72273740D01*
X111642241Y-72448218D01*
X111795281Y-72597302D01*
X111799056Y-72599824D01*
X111799058Y-72599826D01*
X111880689Y-72654370D01*
X111972927Y-72716001D01*
X112169229Y-72800339D01*
X112245155Y-72817520D01*
X112373187Y-72846491D01*
X112373192Y-72846492D01*
X112377613Y-72847492D01*
X112484357Y-72851686D01*
X112586568Y-72855702D01*
X112586569Y-72855702D01*
X112591101Y-72855880D01*
X112802543Y-72825222D01*
X112806842Y-72823763D01*
X112806845Y-72823762D01*
X113000556Y-72758006D01*
X113004857Y-72756546D01*
X113191268Y-72652151D01*
X113355533Y-72515533D01*
X113492151Y-72351268D01*
X113596546Y-72164857D01*
X113629202Y-72068655D01*
X113663762Y-71966845D01*
X113663763Y-71966842D01*
X113665222Y-71962543D01*
X113668222Y-71941851D01*
X113695460Y-71754001D01*
X113695461Y-71753993D01*
X113695880Y-71751101D01*
X113696665Y-71721145D01*
X113697404Y-71692914D01*
X113697404Y-71692909D01*
X113697480Y-71690000D01*
X113696945Y-71684172D01*
X113678345Y-71481762D01*
X113677930Y-71477244D01*
X113635692Y-71327478D01*
X113621168Y-71275981D01*
X113621168Y-71275980D01*
X113619936Y-71271613D01*
X113613709Y-71258985D01*
X113604929Y-71198435D01*
X113633418Y-71144286D01*
X113688293Y-71117225D01*
X113702499Y-71116200D01*
X113896428Y-71116200D01*
X113954619Y-71135107D01*
X113990583Y-71184607D01*
X113990975Y-71244558D01*
X113947887Y-71383325D01*
X113928032Y-71447267D01*
X113927498Y-71451777D01*
X113927498Y-71451778D01*
X113912933Y-71574843D01*
X113902920Y-71659439D01*
X113916894Y-71872634D01*
X113918010Y-71877027D01*
X113918010Y-71877029D01*
X113938586Y-71958046D01*
X113969485Y-72079713D01*
X114058933Y-72273740D01*
X114182241Y-72448218D01*
X114335281Y-72597302D01*
X114339056Y-72599824D01*
X114339058Y-72599826D01*
X114420689Y-72654370D01*
X114512927Y-72716001D01*
X114709229Y-72800339D01*
X114785155Y-72817520D01*
X114913187Y-72846491D01*
X114913192Y-72846492D01*
X114917613Y-72847492D01*
X115024357Y-72851686D01*
X115126568Y-72855702D01*
X115126569Y-72855702D01*
X115131101Y-72855880D01*
X115342543Y-72825222D01*
X115346842Y-72823763D01*
X115346845Y-72823762D01*
X115540556Y-72758006D01*
X115544857Y-72756546D01*
X115731268Y-72652151D01*
X115839461Y-72562168D01*
X117102315Y-72562168D01*
X117109543Y-72569678D01*
X117198658Y-72619484D01*
X117207492Y-72623344D01*
X117387037Y-72681681D01*
X117396437Y-72683748D01*
X117583902Y-72706101D01*
X117593529Y-72706303D01*
X117781754Y-72691820D01*
X117791245Y-72690146D01*
X117973066Y-72639381D01*
X117982063Y-72635891D01*
X118110658Y-72570934D01*
X118118698Y-72562950D01*
X118113506Y-72552716D01*
X117621086Y-72060296D01*
X117609203Y-72054242D01*
X117604172Y-72055038D01*
X117107792Y-72551418D01*
X117102315Y-72562168D01*
X115839461Y-72562168D01*
X115895533Y-72515533D01*
X116032151Y-72351268D01*
X116136546Y-72164857D01*
X116169202Y-72068655D01*
X116203762Y-71966845D01*
X116203763Y-71966842D01*
X116205222Y-71962543D01*
X116208222Y-71941851D01*
X116235460Y-71754001D01*
X116235461Y-71753993D01*
X116235880Y-71751101D01*
X116236665Y-71721145D01*
X116237404Y-71692914D01*
X116237404Y-71692909D01*
X116237480Y-71690000D01*
X116236945Y-71684172D01*
X116218345Y-71481762D01*
X116217930Y-71477244D01*
X116175692Y-71327478D01*
X116161168Y-71275981D01*
X116161168Y-71275980D01*
X116159936Y-71271613D01*
X116153709Y-71258985D01*
X116144929Y-71198435D01*
X116173418Y-71144286D01*
X116228293Y-71117225D01*
X116242499Y-71116200D01*
X116603153Y-71116200D01*
X116661344Y-71135107D01*
X116697308Y-71184607D01*
X116697308Y-71245793D01*
X116689907Y-71262894D01*
X116677668Y-71285156D01*
X116673869Y-71294019D01*
X116616790Y-71473958D01*
X116614785Y-71483389D01*
X116593741Y-71670994D01*
X116593607Y-71680622D01*
X116609404Y-71868750D01*
X116611142Y-71878218D01*
X116663177Y-72059687D01*
X116666728Y-72068655D01*
X116729290Y-72190388D01*
X116737417Y-72198459D01*
X116747481Y-72193309D01*
X117539996Y-71400794D01*
X117594513Y-71373017D01*
X117654945Y-71382588D01*
X117680004Y-71400794D01*
X118471322Y-72192112D01*
X118482177Y-72197643D01*
X118489585Y-72190564D01*
X118536593Y-72107815D01*
X118540508Y-72099020D01*
X118600099Y-71919883D01*
X118602233Y-71910489D01*
X118626153Y-71721145D01*
X118626540Y-71715620D01*
X118626858Y-71692771D01*
X118626626Y-71687241D01*
X118608002Y-71497302D01*
X118606132Y-71487854D01*
X118551566Y-71307123D01*
X118547897Y-71298219D01*
X118528467Y-71261678D01*
X118517842Y-71201423D01*
X118544664Y-71146429D01*
X118598687Y-71117704D01*
X118615879Y-71116200D01*
X118792023Y-71116200D01*
X118850214Y-71135107D01*
X118862027Y-71145196D01*
X119002740Y-71285909D01*
X119030517Y-71340426D01*
X119027283Y-71385268D01*
X119008032Y-71447267D01*
X119007498Y-71451777D01*
X119007498Y-71451778D01*
X118992933Y-71574843D01*
X118982920Y-71659439D01*
X118996894Y-71872634D01*
X118998010Y-71877027D01*
X118998010Y-71877029D01*
X119018586Y-71958046D01*
X119049485Y-72079713D01*
X119138933Y-72273740D01*
X119262241Y-72448218D01*
X119415281Y-72597302D01*
X119419056Y-72599824D01*
X119419058Y-72599826D01*
X119500689Y-72654370D01*
X119592927Y-72716001D01*
X119789229Y-72800339D01*
X119865155Y-72817520D01*
X119993187Y-72846491D01*
X119993192Y-72846492D01*
X119997613Y-72847492D01*
X120104357Y-72851686D01*
X120206568Y-72855702D01*
X120206569Y-72855702D01*
X120211101Y-72855880D01*
X120422543Y-72825222D01*
X120453472Y-72814723D01*
X120514652Y-72813924D01*
X120555297Y-72838466D01*
X125200227Y-77483396D01*
X125228004Y-77537913D01*
X125218433Y-77598345D01*
X125175168Y-77641610D01*
X125130223Y-77652400D01*
X122713351Y-77652400D01*
X122706101Y-77652134D01*
X122663427Y-77649000D01*
X122663423Y-77649000D01*
X122656693Y-77648506D01*
X122647066Y-77650447D01*
X122627499Y-77652400D01*
X113675977Y-77652400D01*
X113671831Y-77652313D01*
X113667560Y-77652134D01*
X113612181Y-77649813D01*
X113570762Y-77659527D01*
X113561609Y-77661224D01*
X113542801Y-77663801D01*
X113526139Y-77666083D01*
X113526138Y-77666083D01*
X113519454Y-77666999D01*
X113504533Y-77673456D01*
X113487835Y-77678979D01*
X113472007Y-77682691D01*
X113434725Y-77703187D01*
X113426366Y-77707282D01*
X113393513Y-77721498D01*
X113393509Y-77721501D01*
X113387317Y-77724180D01*
X113382073Y-77728427D01*
X113382069Y-77728429D01*
X113374693Y-77734403D01*
X113360078Y-77744224D01*
X113350385Y-77749552D01*
X113350380Y-77749556D01*
X113345837Y-77752053D01*
X113338095Y-77758736D01*
X113313881Y-77782950D01*
X113306188Y-77789877D01*
X113275425Y-77814788D01*
X113271513Y-77820293D01*
X113271511Y-77820295D01*
X113263987Y-77830882D01*
X113253293Y-77843538D01*
X112936243Y-78160588D01*
X112881726Y-78188365D01*
X112846927Y-78187682D01*
X112652035Y-78148916D01*
X112545218Y-78147517D01*
X112442940Y-78146178D01*
X112442935Y-78146178D01*
X112438401Y-78146119D01*
X112433926Y-78146888D01*
X112433925Y-78146888D01*
X112422123Y-78148916D01*
X112227834Y-78182301D01*
X112027387Y-78256250D01*
X112023488Y-78258569D01*
X112023483Y-78258572D01*
X111847678Y-78363165D01*
X111843772Y-78365489D01*
X111840357Y-78368484D01*
X111840354Y-78368486D01*
X111808788Y-78396169D01*
X111683140Y-78506360D01*
X111550869Y-78674145D01*
X111548756Y-78678160D01*
X111548756Y-78678161D01*
X111458712Y-78849307D01*
X111451389Y-78863225D01*
X111450045Y-78867554D01*
X111407887Y-79003325D01*
X111388032Y-79067267D01*
X111387498Y-79071777D01*
X111387498Y-79071778D01*
X111368537Y-79231984D01*
X111362920Y-79279439D01*
X111363613Y-79290007D01*
X111374581Y-79457339D01*
X111376894Y-79492634D01*
X111429485Y-79699713D01*
X111431387Y-79703838D01*
X111431387Y-79703839D01*
X111459628Y-79765098D01*
X111466820Y-79825859D01*
X111436923Y-79879243D01*
X111381358Y-79904859D01*
X111321349Y-79892922D01*
X111299718Y-79876549D01*
X111138466Y-79715297D01*
X111110689Y-79660780D01*
X111114723Y-79613472D01*
X111125222Y-79582543D01*
X111137829Y-79495593D01*
X111155460Y-79374001D01*
X111155461Y-79373993D01*
X111155880Y-79371101D01*
X111156402Y-79351193D01*
X111157404Y-79312914D01*
X111157404Y-79312909D01*
X111157480Y-79310000D01*
X111155242Y-79285638D01*
X111139468Y-79113983D01*
X111137930Y-79097244D01*
X111092647Y-78936684D01*
X111081168Y-78895981D01*
X111081168Y-78895980D01*
X111079936Y-78891613D01*
X111068074Y-78867559D01*
X110987451Y-78704070D01*
X110987449Y-78704066D01*
X110985440Y-78699993D01*
X110857607Y-78528803D01*
X110700717Y-78383776D01*
X110668051Y-78363165D01*
X110523862Y-78272189D01*
X110520025Y-78269768D01*
X110321582Y-78190597D01*
X110112035Y-78148916D01*
X110005218Y-78147517D01*
X109902940Y-78146178D01*
X109902935Y-78146178D01*
X109898401Y-78146119D01*
X109893926Y-78146888D01*
X109893925Y-78146888D01*
X109882123Y-78148916D01*
X109687834Y-78182301D01*
X109487387Y-78256250D01*
X109483488Y-78258569D01*
X109483483Y-78258572D01*
X109307678Y-78363165D01*
X109303772Y-78365489D01*
X109300357Y-78368484D01*
X109300354Y-78368486D01*
X109268788Y-78396169D01*
X109143140Y-78506360D01*
X109010869Y-78674145D01*
X109008756Y-78678160D01*
X109008756Y-78678161D01*
X108918712Y-78849307D01*
X108911389Y-78863225D01*
X108910045Y-78867554D01*
X108867887Y-79003325D01*
X108848032Y-79067267D01*
X108847498Y-79071777D01*
X108847498Y-79071778D01*
X108846714Y-79078402D01*
X108833169Y-79192851D01*
X108833035Y-79193980D01*
X108807419Y-79249545D01*
X108754035Y-79279442D01*
X108693274Y-79272250D01*
X108664717Y-79252348D01*
X108632173Y-79219804D01*
X108604396Y-79165287D01*
X108603592Y-79158859D01*
X108602344Y-79145278D01*
X108597930Y-79097244D01*
X108552647Y-78936684D01*
X108541168Y-78895981D01*
X108541168Y-78895980D01*
X108539936Y-78891613D01*
X108528074Y-78867559D01*
X108447451Y-78704070D01*
X108447449Y-78704066D01*
X108445440Y-78699993D01*
X108317607Y-78528803D01*
X108160717Y-78383776D01*
X108128051Y-78363165D01*
X107983862Y-78272189D01*
X107980025Y-78269768D01*
X107781582Y-78190597D01*
X107572035Y-78148916D01*
X107465218Y-78147517D01*
X107362940Y-78146178D01*
X107362935Y-78146178D01*
X107358401Y-78146119D01*
X107353926Y-78146888D01*
X107353925Y-78146888D01*
X107342123Y-78148916D01*
X107147834Y-78182301D01*
X106947387Y-78256250D01*
X106943488Y-78258569D01*
X106943483Y-78258572D01*
X106767678Y-78363165D01*
X106763772Y-78365489D01*
X106760357Y-78368484D01*
X106760354Y-78368486D01*
X106728788Y-78396169D01*
X106603140Y-78506360D01*
X106470869Y-78674145D01*
X106468756Y-78678160D01*
X106468756Y-78678161D01*
X106378712Y-78849307D01*
X106371389Y-78863225D01*
X106370045Y-78867554D01*
X106327887Y-79003325D01*
X106308032Y-79067267D01*
X106307498Y-79071777D01*
X106307498Y-79071778D01*
X106288537Y-79231984D01*
X106282920Y-79279439D01*
X106283613Y-79290007D01*
X106294581Y-79457339D01*
X106296894Y-79492634D01*
X106349485Y-79699713D01*
X106438933Y-79893740D01*
X106562241Y-80068218D01*
X106715281Y-80217302D01*
X106719056Y-80219824D01*
X106719058Y-80219826D01*
X106800689Y-80274370D01*
X106892927Y-80336001D01*
X107089229Y-80420339D01*
X107153729Y-80434934D01*
X107293187Y-80466491D01*
X107293192Y-80466492D01*
X107297613Y-80467492D01*
X107390104Y-80471126D01*
X107506568Y-80475702D01*
X107506569Y-80475702D01*
X107511101Y-80475880D01*
X107722543Y-80445222D01*
X107726842Y-80443763D01*
X107726845Y-80443762D01*
X107920556Y-80378006D01*
X107924857Y-80376546D01*
X108101595Y-80277568D01*
X108161604Y-80265631D01*
X108219972Y-80293941D01*
X111576435Y-83650404D01*
X111604212Y-83704921D01*
X111594641Y-83765353D01*
X111551376Y-83808618D01*
X111532055Y-83816035D01*
X111515670Y-83820425D01*
X111317362Y-83912898D01*
X111313819Y-83915379D01*
X111313817Y-83915380D01*
X111277369Y-83940901D01*
X111138123Y-84038402D01*
X110983402Y-84193123D01*
X110857898Y-84372362D01*
X110765425Y-84570670D01*
X110763868Y-84569944D01*
X110730360Y-84612832D01*
X110671545Y-84629697D01*
X110614050Y-84608770D01*
X110585914Y-84570046D01*
X110584575Y-84570670D01*
X110558339Y-84514407D01*
X110492102Y-84372362D01*
X110366598Y-84193123D01*
X110211877Y-84038402D01*
X110081780Y-83947307D01*
X110036184Y-83915380D01*
X110036182Y-83915379D01*
X110032639Y-83912898D01*
X109834330Y-83820425D01*
X109727508Y-83791802D01*
X109627154Y-83764912D01*
X109627152Y-83764912D01*
X109622977Y-83763793D01*
X109405000Y-83744723D01*
X109187023Y-83763793D01*
X109182848Y-83764912D01*
X109182846Y-83764912D01*
X109082492Y-83791802D01*
X108975670Y-83820425D01*
X108777362Y-83912898D01*
X108773819Y-83915379D01*
X108773817Y-83915380D01*
X108737369Y-83940901D01*
X108598123Y-84038402D01*
X108443402Y-84193123D01*
X108317898Y-84372362D01*
X108225425Y-84570670D01*
X108223868Y-84569944D01*
X108190360Y-84612832D01*
X108131545Y-84629697D01*
X108074050Y-84608770D01*
X108045914Y-84570046D01*
X108044575Y-84570670D01*
X108018339Y-84514407D01*
X107952102Y-84372362D01*
X107826598Y-84193123D01*
X107671877Y-84038402D01*
X107541780Y-83947307D01*
X107496184Y-83915380D01*
X107496182Y-83915379D01*
X107492639Y-83912898D01*
X107294330Y-83820425D01*
X107187508Y-83791802D01*
X107087154Y-83764912D01*
X107087152Y-83764912D01*
X107082977Y-83763793D01*
X106865000Y-83744723D01*
X106647023Y-83763793D01*
X106642848Y-83764912D01*
X106642846Y-83764912D01*
X106542492Y-83791802D01*
X106435670Y-83820425D01*
X106237362Y-83912898D01*
X106233819Y-83915379D01*
X106233817Y-83915380D01*
X106197369Y-83940901D01*
X106058123Y-84038402D01*
X105903402Y-84193123D01*
X105777898Y-84372362D01*
X105685425Y-84570670D01*
X105628793Y-84782023D01*
X105628416Y-84786334D01*
X105622623Y-84852548D01*
X105598716Y-84908870D01*
X105546270Y-84940383D01*
X105485318Y-84935050D01*
X105439141Y-84894909D01*
X105425000Y-84843920D01*
X105425000Y-84130234D01*
X105424052Y-84120612D01*
X105412397Y-84062017D01*
X105405078Y-84044349D01*
X105360659Y-83977870D01*
X105347130Y-83964341D01*
X105280651Y-83919922D01*
X105262983Y-83912603D01*
X105204388Y-83900948D01*
X105194766Y-83900000D01*
X104594680Y-83900000D01*
X104581995Y-83904122D01*
X104579000Y-83908243D01*
X104579000Y-86084320D01*
X104583122Y-86097005D01*
X104587243Y-86100000D01*
X105194766Y-86100000D01*
X105204388Y-86099052D01*
X105262983Y-86087397D01*
X105280651Y-86080078D01*
X105347130Y-86035659D01*
X105360659Y-86022130D01*
X105405078Y-85955651D01*
X105412397Y-85937983D01*
X105424052Y-85879388D01*
X105425000Y-85869766D01*
X105425000Y-85156080D01*
X105443907Y-85097889D01*
X105493407Y-85061925D01*
X105554593Y-85061925D01*
X105604093Y-85097889D01*
X105622623Y-85147452D01*
X105628793Y-85217977D01*
X105629912Y-85222152D01*
X105629912Y-85222154D01*
X105639248Y-85256995D01*
X105685425Y-85429330D01*
X105777898Y-85627638D01*
X105780379Y-85631181D01*
X105780380Y-85631183D01*
X105793271Y-85649593D01*
X105903402Y-85806877D01*
X106058123Y-85961598D01*
X106144572Y-86022130D01*
X106227330Y-86080078D01*
X106237361Y-86087102D01*
X106435670Y-86179575D01*
X106522220Y-86202766D01*
X106642846Y-86235088D01*
X106642848Y-86235088D01*
X106647023Y-86236207D01*
X106865000Y-86255277D01*
X107082977Y-86236207D01*
X107087152Y-86235088D01*
X107087154Y-86235088D01*
X107207780Y-86202766D01*
X107294330Y-86179575D01*
X107492639Y-86087102D01*
X107502671Y-86080078D01*
X107585428Y-86022130D01*
X107671877Y-85961598D01*
X107826598Y-85806877D01*
X107936729Y-85649593D01*
X107949620Y-85631183D01*
X107949621Y-85631181D01*
X107952102Y-85627638D01*
X108044575Y-85429330D01*
X108046132Y-85430056D01*
X108079640Y-85387168D01*
X108138455Y-85370303D01*
X108195950Y-85391230D01*
X108224086Y-85429954D01*
X108225425Y-85429330D01*
X108317898Y-85627638D01*
X108320379Y-85631181D01*
X108320380Y-85631183D01*
X108333271Y-85649593D01*
X108443402Y-85806877D01*
X108598123Y-85961598D01*
X108684572Y-86022130D01*
X108767330Y-86080078D01*
X108777361Y-86087102D01*
X108975670Y-86179575D01*
X109062220Y-86202766D01*
X109182846Y-86235088D01*
X109182848Y-86235088D01*
X109187023Y-86236207D01*
X109405000Y-86255277D01*
X109622977Y-86236207D01*
X109627152Y-86235088D01*
X109627154Y-86235088D01*
X109747780Y-86202766D01*
X109834330Y-86179575D01*
X110032639Y-86087102D01*
X110042671Y-86080078D01*
X110125428Y-86022130D01*
X110211877Y-85961598D01*
X110366598Y-85806877D01*
X110476729Y-85649593D01*
X110489620Y-85631183D01*
X110489621Y-85631181D01*
X110492102Y-85627638D01*
X110584575Y-85429330D01*
X110586132Y-85430056D01*
X110619640Y-85387168D01*
X110678455Y-85370303D01*
X110735950Y-85391230D01*
X110764086Y-85429954D01*
X110765425Y-85429330D01*
X110857898Y-85627638D01*
X110860379Y-85631181D01*
X110860380Y-85631183D01*
X110873271Y-85649593D01*
X110983402Y-85806877D01*
X111138123Y-85961598D01*
X111224572Y-86022130D01*
X111307330Y-86080078D01*
X111317361Y-86087102D01*
X111515670Y-86179575D01*
X111602220Y-86202766D01*
X111722846Y-86235088D01*
X111722848Y-86235088D01*
X111727023Y-86236207D01*
X111945000Y-86255277D01*
X112162977Y-86236207D01*
X112167152Y-86235088D01*
X112167154Y-86235088D01*
X112287780Y-86202766D01*
X112374330Y-86179575D01*
X112572639Y-86087102D01*
X112582671Y-86080078D01*
X112665428Y-86022130D01*
X112751877Y-85961598D01*
X112815613Y-85897862D01*
X112870130Y-85870085D01*
X112930562Y-85879656D01*
X112946310Y-85890724D01*
X112946487Y-85890475D01*
X112962582Y-85901913D01*
X112975238Y-85912607D01*
X113667901Y-86605270D01*
X113670771Y-86608263D01*
X113711184Y-86652212D01*
X113716921Y-86655769D01*
X113716922Y-86655770D01*
X113747335Y-86674627D01*
X113755021Y-86679909D01*
X113788905Y-86705628D01*
X113795177Y-86708111D01*
X113795180Y-86708113D01*
X113804018Y-86711612D01*
X113819737Y-86719518D01*
X113824719Y-86722607D01*
X113833550Y-86728082D01*
X113858938Y-86735458D01*
X113874396Y-86739949D01*
X113883221Y-86742970D01*
X113922773Y-86758630D01*
X113938931Y-86760328D01*
X113956210Y-86763718D01*
X113966827Y-86766803D01*
X113966830Y-86766804D01*
X113971812Y-86768251D01*
X113978219Y-86768721D01*
X113980211Y-86768868D01*
X113980218Y-86768868D01*
X113982012Y-86769000D01*
X114016244Y-86769000D01*
X114026592Y-86769542D01*
X114034622Y-86770386D01*
X114046049Y-86771587D01*
X114065962Y-86773680D01*
X114072613Y-86772555D01*
X114072614Y-86772555D01*
X114085438Y-86770386D01*
X114101948Y-86769000D01*
X153646123Y-86769000D01*
X153650269Y-86769087D01*
X153709919Y-86771587D01*
X153716491Y-86770046D01*
X153716497Y-86770045D01*
X153751333Y-86761874D01*
X153760503Y-86760174D01*
X153795960Y-86755317D01*
X153795961Y-86755317D01*
X153802646Y-86754401D01*
X153808841Y-86751720D01*
X153808842Y-86751720D01*
X153817562Y-86747947D01*
X153834268Y-86742422D01*
X153850093Y-86738710D01*
X153887378Y-86718213D01*
X153895752Y-86714111D01*
X153928586Y-86699902D01*
X153928587Y-86699901D01*
X153934783Y-86697220D01*
X153947415Y-86686992D01*
X153962015Y-86677180D01*
X153976263Y-86669347D01*
X153984005Y-86662664D01*
X154008219Y-86638450D01*
X154015912Y-86631523D01*
X154046675Y-86606612D01*
X154050589Y-86601105D01*
X154058113Y-86590518D01*
X154068807Y-86577862D01*
X155076903Y-85569766D01*
X157100000Y-85569766D01*
X157100948Y-85579388D01*
X157112603Y-85637983D01*
X157119922Y-85655651D01*
X157164341Y-85722130D01*
X157177870Y-85735659D01*
X157244349Y-85780078D01*
X157262017Y-85787397D01*
X157320612Y-85799052D01*
X157330234Y-85800000D01*
X157930320Y-85800000D01*
X157943005Y-85795878D01*
X157946000Y-85791757D01*
X157946000Y-85784320D01*
X158454000Y-85784320D01*
X158458122Y-85797005D01*
X158462243Y-85800000D01*
X159069766Y-85800000D01*
X159079388Y-85799052D01*
X159137983Y-85787397D01*
X159155651Y-85780078D01*
X159222130Y-85735659D01*
X159235659Y-85722130D01*
X159280078Y-85655651D01*
X159287397Y-85637983D01*
X159299052Y-85579388D01*
X159300000Y-85569766D01*
X159300000Y-84969680D01*
X159295878Y-84956995D01*
X159291757Y-84954000D01*
X158469680Y-84954000D01*
X158456995Y-84958122D01*
X158454000Y-84962243D01*
X158454000Y-85784320D01*
X157946000Y-85784320D01*
X157946000Y-84969680D01*
X157941878Y-84956995D01*
X157937757Y-84954000D01*
X157115680Y-84954000D01*
X157102995Y-84958122D01*
X157100000Y-84962243D01*
X157100000Y-85569766D01*
X155076903Y-85569766D01*
X156662173Y-83984496D01*
X156716690Y-83956719D01*
X156732177Y-83955500D01*
X157001000Y-83955500D01*
X157059191Y-83974407D01*
X157095155Y-84023907D01*
X157100000Y-84054500D01*
X157100000Y-84430320D01*
X157104122Y-84443005D01*
X157108243Y-84446000D01*
X159284320Y-84446000D01*
X159297005Y-84441878D01*
X159300000Y-84437757D01*
X159300000Y-83830234D01*
X159299052Y-83820612D01*
X159287397Y-83762017D01*
X159280078Y-83744348D01*
X159240559Y-83685203D01*
X159223951Y-83626315D01*
X159245129Y-83568911D01*
X159252871Y-83560198D01*
X160648470Y-82164599D01*
X160651463Y-82161729D01*
X160690444Y-82125884D01*
X160695412Y-82121316D01*
X160717827Y-82085165D01*
X160723109Y-82077479D01*
X160744747Y-82048973D01*
X160744748Y-82048971D01*
X160748828Y-82043596D01*
X160754811Y-82028484D01*
X160762718Y-82012762D01*
X160767727Y-82004684D01*
X160767728Y-82004683D01*
X160771282Y-81998950D01*
X160783150Y-81958099D01*
X160786170Y-81949277D01*
X160799345Y-81916001D01*
X160801829Y-81909727D01*
X160802534Y-81903019D01*
X160802536Y-81903011D01*
X160803529Y-81893564D01*
X160806917Y-81876296D01*
X160810004Y-81865671D01*
X160810005Y-81865665D01*
X160811451Y-81860688D01*
X160812200Y-81850488D01*
X160812200Y-81816255D01*
X160812742Y-81805906D01*
X160816175Y-81773246D01*
X160816175Y-81773245D01*
X160816880Y-81766538D01*
X160814945Y-81755098D01*
X160813586Y-81747062D01*
X160812200Y-81730552D01*
X160812200Y-66354059D01*
X160831107Y-66295868D01*
X160880607Y-66259904D01*
X160940474Y-66259487D01*
X160992339Y-66275542D01*
X160995065Y-66276062D01*
X161304554Y-66335100D01*
X161332893Y-66340506D01*
X161678566Y-66367104D01*
X161681318Y-66367008D01*
X161681323Y-66367008D01*
X161890888Y-66359689D01*
X162025049Y-66355004D01*
X162368024Y-66304358D01*
X162370693Y-66303653D01*
X162370697Y-66303652D01*
X162700557Y-66216500D01*
X162700560Y-66216499D01*
X162703217Y-66215797D01*
X162705785Y-66214801D01*
X163023861Y-66091427D01*
X163023870Y-66091423D01*
X163026448Y-66090423D01*
X163333690Y-65929801D01*
X163621113Y-65735932D01*
X163646726Y-65714134D01*
X163883030Y-65513023D01*
X163883033Y-65513020D01*
X163885134Y-65511232D01*
X164122463Y-65258503D01*
X164124125Y-65256282D01*
X164328481Y-64983114D01*
X164328487Y-64983105D01*
X164330141Y-64980894D01*
X164331537Y-64978514D01*
X164331542Y-64978507D01*
X164471251Y-64740377D01*
X164505580Y-64681865D01*
X164646594Y-64365144D01*
X164656134Y-64335070D01*
X164691751Y-64285321D01*
X164749809Y-64266007D01*
X164808130Y-64284508D01*
X164844439Y-64333756D01*
X164849500Y-64365005D01*
X164849500Y-86960438D01*
X164848268Y-86976010D01*
X164844503Y-86999649D01*
X164845715Y-87007345D01*
X164845715Y-87007347D01*
X164846521Y-87012466D01*
X164847567Y-87033499D01*
X164833234Y-87285116D01*
X164831984Y-87296134D01*
X164784830Y-87572523D01*
X164782360Y-87583312D01*
X164704589Y-87852700D01*
X164700923Y-87863160D01*
X164622502Y-88052254D01*
X164593514Y-88122151D01*
X164588698Y-88132141D01*
X164453003Y-88377484D01*
X164447107Y-88386864D01*
X164284818Y-88615499D01*
X164277903Y-88624168D01*
X164091061Y-88833219D01*
X164083219Y-88841061D01*
X163874168Y-89027903D01*
X163865504Y-89034814D01*
X163636864Y-89197107D01*
X163627484Y-89203003D01*
X163382141Y-89338698D01*
X163372153Y-89343513D01*
X163113160Y-89450923D01*
X163102706Y-89454587D01*
X162833312Y-89532360D01*
X162822523Y-89534830D01*
X162546134Y-89581984D01*
X162535120Y-89583234D01*
X162283473Y-89597569D01*
X162262442Y-89596523D01*
X162249649Y-89594508D01*
X162241958Y-89595733D01*
X162241955Y-89595733D01*
X162226042Y-89598268D01*
X162210470Y-89599500D01*
X103289309Y-89599500D01*
X103273822Y-89598281D01*
X103273267Y-89598193D01*
X103250000Y-89594508D01*
X103242303Y-89595727D01*
X103242302Y-89595727D01*
X103237193Y-89596536D01*
X103216157Y-89597599D01*
X103131488Y-89592844D01*
X102964494Y-89583466D01*
X102953472Y-89582225D01*
X102760514Y-89549440D01*
X102677043Y-89535257D01*
X102666220Y-89532787D01*
X102503506Y-89485911D01*
X102396776Y-89455162D01*
X102386311Y-89451500D01*
X102127247Y-89344193D01*
X102117257Y-89339382D01*
X101871852Y-89203751D01*
X101862452Y-89197845D01*
X101829329Y-89174343D01*
X101633761Y-89035580D01*
X101625103Y-89028676D01*
X101416004Y-88841813D01*
X101408187Y-88833996D01*
X101221324Y-88624897D01*
X101214420Y-88616239D01*
X101052155Y-88387548D01*
X101046249Y-88378148D01*
X100910621Y-88132749D01*
X100905804Y-88122747D01*
X100798500Y-87863689D01*
X100794836Y-87853219D01*
X100794687Y-87852700D01*
X100717213Y-87583780D01*
X100714743Y-87572957D01*
X100667776Y-87296533D01*
X100666533Y-87285501D01*
X100666512Y-87285116D01*
X100652401Y-87033843D01*
X100653464Y-87012807D01*
X100654273Y-87007698D01*
X100654273Y-87007697D01*
X100655492Y-87000000D01*
X100651719Y-86976177D01*
X100650500Y-86960691D01*
X100650500Y-85869766D01*
X103225000Y-85869766D01*
X103225948Y-85879388D01*
X103237603Y-85937983D01*
X103244922Y-85955651D01*
X103289341Y-86022130D01*
X103302870Y-86035659D01*
X103369349Y-86080078D01*
X103387017Y-86087397D01*
X103445612Y-86099052D01*
X103455234Y-86100000D01*
X104055320Y-86100000D01*
X104068005Y-86095878D01*
X104071000Y-86091757D01*
X104071000Y-85269680D01*
X104066878Y-85256995D01*
X104062757Y-85254000D01*
X103240680Y-85254000D01*
X103227995Y-85258122D01*
X103225000Y-85262243D01*
X103225000Y-85869766D01*
X100650500Y-85869766D01*
X100650500Y-84730320D01*
X103225000Y-84730320D01*
X103229122Y-84743005D01*
X103233243Y-84746000D01*
X104055320Y-84746000D01*
X104068005Y-84741878D01*
X104071000Y-84737757D01*
X104071000Y-83915680D01*
X104066878Y-83902995D01*
X104062757Y-83900000D01*
X103455234Y-83900000D01*
X103445612Y-83900948D01*
X103387017Y-83912603D01*
X103369349Y-83919922D01*
X103302870Y-83964341D01*
X103289341Y-83977870D01*
X103244922Y-84044349D01*
X103237603Y-84062017D01*
X103225948Y-84120612D01*
X103225000Y-84130234D01*
X103225000Y-84730320D01*
X100650500Y-84730320D01*
X100650500Y-72562168D01*
X106942315Y-72562168D01*
X106949543Y-72569678D01*
X107038658Y-72619484D01*
X107047492Y-72623344D01*
X107227037Y-72681681D01*
X107236437Y-72683748D01*
X107423902Y-72706101D01*
X107433529Y-72706303D01*
X107621754Y-72691820D01*
X107631245Y-72690146D01*
X107813066Y-72639381D01*
X107822063Y-72635891D01*
X107950658Y-72570934D01*
X107958698Y-72562950D01*
X107953506Y-72552716D01*
X107461086Y-72060296D01*
X107449203Y-72054242D01*
X107444172Y-72055038D01*
X106947792Y-72551418D01*
X106942315Y-72562168D01*
X100650500Y-72562168D01*
X100650500Y-71680622D01*
X106433607Y-71680622D01*
X106449404Y-71868750D01*
X106451142Y-71878218D01*
X106503177Y-72059687D01*
X106506728Y-72068655D01*
X106569290Y-72190388D01*
X106577417Y-72198459D01*
X106587481Y-72193309D01*
X107079704Y-71701086D01*
X107084946Y-71690797D01*
X107814242Y-71690797D01*
X107815038Y-71695828D01*
X108311322Y-72192112D01*
X108322177Y-72197643D01*
X108329585Y-72190564D01*
X108376593Y-72107815D01*
X108380508Y-72099020D01*
X108440099Y-71919883D01*
X108442233Y-71910489D01*
X108466153Y-71721145D01*
X108466540Y-71715620D01*
X108466858Y-71692771D01*
X108466626Y-71687241D01*
X108448002Y-71497302D01*
X108446132Y-71487854D01*
X108391566Y-71307123D01*
X108387896Y-71298219D01*
X108330376Y-71190039D01*
X108321959Y-71181911D01*
X108312241Y-71186969D01*
X107820296Y-71678914D01*
X107814242Y-71690797D01*
X107084946Y-71690797D01*
X107085758Y-71689203D01*
X107084962Y-71684172D01*
X106588449Y-71187659D01*
X106577807Y-71182237D01*
X106570192Y-71189616D01*
X106517668Y-71285156D01*
X106513869Y-71294019D01*
X106456790Y-71473958D01*
X106454785Y-71483389D01*
X106433741Y-71670994D01*
X106433607Y-71680622D01*
X100650500Y-71680622D01*
X100650500Y-70817749D01*
X106941744Y-70817749D01*
X106946848Y-70827638D01*
X107438914Y-71319704D01*
X107450797Y-71325758D01*
X107455828Y-71324962D01*
X107952512Y-70828278D01*
X107957879Y-70817744D01*
X107950352Y-70810030D01*
X107848317Y-70754860D01*
X107839446Y-70751131D01*
X107659097Y-70695303D01*
X107649665Y-70693367D01*
X107461915Y-70673634D01*
X107452277Y-70673567D01*
X107264273Y-70690676D01*
X107254807Y-70692482D01*
X107073711Y-70745782D01*
X107064770Y-70749395D01*
X106949848Y-70809475D01*
X106941744Y-70817749D01*
X100650500Y-70817749D01*
X100650500Y-64371635D01*
X100669407Y-64313444D01*
X100718907Y-64277480D01*
X100780093Y-64277480D01*
X100829593Y-64313444D01*
X100841548Y-64335191D01*
X100924601Y-64544960D01*
X100925890Y-64547385D01*
X100925895Y-64547395D01*
X101061400Y-64802240D01*
X101087365Y-64851073D01*
X101088927Y-64853354D01*
X101281675Y-65134857D01*
X101281680Y-65134863D01*
X101283236Y-65137136D01*
X101285033Y-65139218D01*
X101285037Y-65139223D01*
X101372476Y-65240522D01*
X101509773Y-65399582D01*
X101764153Y-65635140D01*
X102043205Y-65840875D01*
X102343452Y-66014223D01*
X102661150Y-66153021D01*
X102663791Y-66153839D01*
X102663795Y-66153840D01*
X102989686Y-66254721D01*
X102989690Y-66254722D01*
X102992339Y-66255542D01*
X103332893Y-66320506D01*
X103678566Y-66347104D01*
X103681318Y-66347008D01*
X103681323Y-66347008D01*
X103890888Y-66339689D01*
X104025049Y-66335004D01*
X104368024Y-66284358D01*
X104370693Y-66283653D01*
X104370697Y-66283652D01*
X104700557Y-66196500D01*
X104700560Y-66196499D01*
X104703217Y-66195797D01*
X104811388Y-66153840D01*
X105023861Y-66071427D01*
X105023870Y-66071423D01*
X105026448Y-66070423D01*
X105292979Y-65931084D01*
X105331236Y-65911084D01*
X105331237Y-65911083D01*
X105333690Y-65909801D01*
X105621113Y-65715932D01*
X105623226Y-65714134D01*
X105883030Y-65493023D01*
X105883033Y-65493020D01*
X105885134Y-65491232D01*
X106122463Y-65238503D01*
X106179281Y-65162553D01*
X106328481Y-64963114D01*
X106328487Y-64963105D01*
X106330141Y-64960894D01*
X106331537Y-64958514D01*
X106331542Y-64958507D01*
X106459517Y-64740377D01*
X106505580Y-64661865D01*
X106646594Y-64345144D01*
X106649790Y-64335070D01*
X106750591Y-64017305D01*
X106750592Y-64017299D01*
X106751424Y-64014678D01*
X106760501Y-63968836D01*
X106818228Y-63677295D01*
X106818229Y-63677288D01*
X106818764Y-63674586D01*
X106847774Y-63329107D01*
X106848512Y-63276255D01*
X106848961Y-63244147D01*
X106848961Y-63244136D01*
X106848985Y-63242400D01*
X106829632Y-62896246D01*
X106789042Y-62656262D01*
X106772274Y-62557126D01*
X106772274Y-62557124D01*
X106771814Y-62554407D01*
X106712272Y-62346759D01*
X106677015Y-62223802D01*
X106677014Y-62223798D01*
X106676252Y-62221142D01*
X106544137Y-61900607D01*
X106535110Y-61884186D01*
X106378448Y-61599220D01*
X106377116Y-61596797D01*
X106363822Y-61577951D01*
X106178859Y-61315749D01*
X106178855Y-61315745D01*
X106177270Y-61313497D01*
X106167356Y-61302330D01*
X106073458Y-61196571D01*
X105947090Y-61054239D01*
X105945041Y-61052394D01*
X105945037Y-61052390D01*
X105773324Y-60897780D01*
X105689446Y-60822256D01*
X105548484Y-60721337D01*
X105409803Y-60622051D01*
X105409798Y-60622048D01*
X105407548Y-60620437D01*
X105319127Y-60571020D01*
X105107333Y-60452651D01*
X105107324Y-60452647D01*
X105104911Y-60451298D01*
X104841962Y-60340765D01*
X104795645Y-60300785D01*
X104781673Y-60241216D01*
X104805383Y-60184812D01*
X104857719Y-60153116D01*
X104880326Y-60150500D01*
X112821323Y-60150500D01*
X112879514Y-60169407D01*
G37*
G04 #@! TD.AperFunction*
G04 #@! TA.AperFunction,Conductor*
G36*
X152614768Y-83879807D02*
G01*
X152650732Y-83929307D01*
X152650732Y-83990493D01*
X152634323Y-84021191D01*
X152576318Y-84094769D01*
X152571397Y-84102346D01*
X152481490Y-84273231D01*
X152478032Y-84281579D01*
X152431629Y-84431024D01*
X152431781Y-84442650D01*
X152442327Y-84446000D01*
X153655000Y-84446000D01*
X153713191Y-84464907D01*
X153749155Y-84514407D01*
X153754000Y-84545000D01*
X153754000Y-84855000D01*
X153735093Y-84913191D01*
X153685593Y-84949155D01*
X153655000Y-84954000D01*
X152445186Y-84954000D01*
X152433276Y-84957870D01*
X152432958Y-84967591D01*
X152457536Y-85064368D01*
X152460551Y-85072880D01*
X152541386Y-85248225D01*
X152545917Y-85256072D01*
X152657348Y-85413744D01*
X152663222Y-85420622D01*
X152794068Y-85548086D01*
X152822557Y-85602234D01*
X152813777Y-85662786D01*
X152771083Y-85706614D01*
X152724987Y-85718000D01*
X115685364Y-85718000D01*
X115627173Y-85699093D01*
X115591209Y-85649593D01*
X115591209Y-85588407D01*
X115595640Y-85577161D01*
X115662747Y-85433250D01*
X115664575Y-85429330D01*
X115710752Y-85256995D01*
X115720088Y-85222154D01*
X115720088Y-85222152D01*
X115721207Y-85217977D01*
X115740277Y-85000000D01*
X115721207Y-84782023D01*
X115664575Y-84570670D01*
X115572102Y-84372362D01*
X115446598Y-84193123D01*
X115291877Y-84038402D01*
X115288337Y-84035923D01*
X115288119Y-84035740D01*
X115255694Y-83983852D01*
X115259961Y-83922816D01*
X115299289Y-83875944D01*
X115351753Y-83860900D01*
X152556577Y-83860900D01*
X152614768Y-83879807D01*
G37*
G04 #@! TD.AperFunction*
G04 #@! TA.AperFunction,Conductor*
G36*
X139316791Y-64287307D02*
G01*
X139352755Y-64336807D01*
X139357600Y-64367400D01*
X139357600Y-65581474D01*
X139361722Y-65594159D01*
X139362893Y-65595010D01*
X139365400Y-65595224D01*
X139365789Y-65595131D01*
X139548626Y-65533066D01*
X139556888Y-65529388D01*
X139725355Y-65435041D01*
X139732809Y-65429918D01*
X139881250Y-65306461D01*
X139887661Y-65300050D01*
X140011118Y-65151609D01*
X140016241Y-65144155D01*
X140110588Y-64975688D01*
X140114266Y-64967426D01*
X140176330Y-64784591D01*
X140178441Y-64775799D01*
X140200856Y-64621204D01*
X140227918Y-64566329D01*
X140282066Y-64537840D01*
X140342618Y-64546619D01*
X140386446Y-64589314D01*
X140397455Y-64626782D01*
X140407393Y-64740377D01*
X140464025Y-64951730D01*
X140556498Y-65150038D01*
X140682002Y-65329277D01*
X140836723Y-65483998D01*
X141015961Y-65609502D01*
X141214270Y-65701975D01*
X141241824Y-65709358D01*
X141421446Y-65757488D01*
X141421448Y-65757488D01*
X141425623Y-65758607D01*
X141643600Y-65777677D01*
X141861577Y-65758607D01*
X141865752Y-65757488D01*
X141865754Y-65757488D01*
X142045376Y-65709358D01*
X142072930Y-65701975D01*
X142271239Y-65609502D01*
X142450477Y-65483998D01*
X142605198Y-65329277D01*
X142730702Y-65150038D01*
X142823175Y-64951730D01*
X142824732Y-64952456D01*
X142858240Y-64909568D01*
X142917055Y-64892703D01*
X142974550Y-64913630D01*
X143002686Y-64952354D01*
X143004025Y-64951730D01*
X143096498Y-65150038D01*
X143222002Y-65329277D01*
X143376723Y-65483998D01*
X143555961Y-65609502D01*
X143754270Y-65701975D01*
X143781824Y-65709358D01*
X143961446Y-65757488D01*
X143961448Y-65757488D01*
X143965623Y-65758607D01*
X144183600Y-65777677D01*
X144401577Y-65758607D01*
X144405752Y-65757488D01*
X144405754Y-65757488D01*
X144585376Y-65709358D01*
X144612930Y-65701975D01*
X144811239Y-65609502D01*
X144990477Y-65483998D01*
X145145198Y-65329277D01*
X145270702Y-65150038D01*
X145363175Y-64951730D01*
X145364732Y-64952456D01*
X145398240Y-64909568D01*
X145457055Y-64892703D01*
X145514550Y-64913630D01*
X145542686Y-64952354D01*
X145544025Y-64951730D01*
X145636498Y-65150038D01*
X145762002Y-65329277D01*
X145916723Y-65483998D01*
X146095961Y-65609502D01*
X146294270Y-65701975D01*
X146321824Y-65709358D01*
X146501446Y-65757488D01*
X146501448Y-65757488D01*
X146505623Y-65758607D01*
X146723600Y-65777677D01*
X146941577Y-65758607D01*
X146945752Y-65757488D01*
X146945754Y-65757488D01*
X147125376Y-65709358D01*
X147152930Y-65701975D01*
X147351239Y-65609502D01*
X147530477Y-65483998D01*
X147685198Y-65329277D01*
X147810702Y-65150038D01*
X147903175Y-64951730D01*
X147904732Y-64952456D01*
X147938240Y-64909568D01*
X147997055Y-64892703D01*
X148054550Y-64913630D01*
X148082686Y-64952354D01*
X148084025Y-64951730D01*
X148176498Y-65150038D01*
X148302002Y-65329277D01*
X148456723Y-65483998D01*
X148635961Y-65609502D01*
X148834270Y-65701975D01*
X148861824Y-65709358D01*
X149041446Y-65757488D01*
X149041448Y-65757488D01*
X149045623Y-65758607D01*
X149263600Y-65777677D01*
X149481577Y-65758607D01*
X149485752Y-65757488D01*
X149485754Y-65757488D01*
X149665376Y-65709358D01*
X149692930Y-65701975D01*
X149891239Y-65609502D01*
X150070477Y-65483998D01*
X150225198Y-65329277D01*
X150350702Y-65150038D01*
X150443175Y-64951730D01*
X150444732Y-64952456D01*
X150478240Y-64909568D01*
X150537055Y-64892703D01*
X150594550Y-64913630D01*
X150622686Y-64952354D01*
X150624025Y-64951730D01*
X150716498Y-65150038D01*
X150842002Y-65329277D01*
X150996723Y-65483998D01*
X151175961Y-65609502D01*
X151374270Y-65701975D01*
X151401824Y-65709358D01*
X151581446Y-65757488D01*
X151581448Y-65757488D01*
X151585623Y-65758607D01*
X151803600Y-65777677D01*
X152021577Y-65758607D01*
X152025752Y-65757488D01*
X152025754Y-65757488D01*
X152205376Y-65709358D01*
X152232930Y-65701975D01*
X152431239Y-65609502D01*
X152460014Y-65589354D01*
X152484779Y-65572013D01*
X152543291Y-65554124D01*
X152601143Y-65574044D01*
X152636237Y-65624164D01*
X152640124Y-65643794D01*
X152640396Y-65646671D01*
X152640113Y-65653419D01*
X152641655Y-65659992D01*
X152641655Y-65659996D01*
X152649826Y-65694833D01*
X152651526Y-65704003D01*
X152655900Y-65735932D01*
X152657299Y-65746146D01*
X152659980Y-65752341D01*
X152659980Y-65752342D01*
X152663753Y-65761062D01*
X152669278Y-65777768D01*
X152672990Y-65793593D01*
X152676242Y-65799508D01*
X152693487Y-65830878D01*
X152697589Y-65839252D01*
X152698292Y-65840875D01*
X152714480Y-65878283D01*
X152718728Y-65883529D01*
X152724708Y-65890914D01*
X152734520Y-65905515D01*
X152742353Y-65919763D01*
X152749036Y-65927505D01*
X152773250Y-65951719D01*
X152780177Y-65959412D01*
X152805088Y-65990175D01*
X152810593Y-65994087D01*
X152810595Y-65994089D01*
X152821182Y-66001613D01*
X152833838Y-66012307D01*
X156643301Y-69821770D01*
X156646171Y-69824763D01*
X156686584Y-69868712D01*
X156692321Y-69872269D01*
X156692322Y-69872270D01*
X156722735Y-69891127D01*
X156730421Y-69896409D01*
X156764305Y-69922128D01*
X156770577Y-69924611D01*
X156770580Y-69924613D01*
X156779418Y-69928112D01*
X156795137Y-69936018D01*
X156800119Y-69939107D01*
X156808950Y-69944582D01*
X156846123Y-69955382D01*
X156849796Y-69956449D01*
X156858621Y-69959470D01*
X156898173Y-69975130D01*
X156914331Y-69976828D01*
X156931610Y-69980218D01*
X156942227Y-69983303D01*
X156942230Y-69983304D01*
X156947212Y-69984751D01*
X156953619Y-69985221D01*
X156955611Y-69985368D01*
X156955618Y-69985368D01*
X156957412Y-69985500D01*
X156991644Y-69985500D01*
X157001994Y-69986043D01*
X157013095Y-69987210D01*
X157068990Y-70012097D01*
X157092469Y-70043828D01*
X157112898Y-70087638D01*
X157115379Y-70091181D01*
X157115380Y-70091183D01*
X157150422Y-70141228D01*
X157238402Y-70266877D01*
X157393123Y-70421598D01*
X157508004Y-70502039D01*
X157563841Y-70541136D01*
X157572361Y-70547102D01*
X157763540Y-70636250D01*
X157770670Y-70639575D01*
X157769944Y-70641132D01*
X157812832Y-70674640D01*
X157829697Y-70733455D01*
X157808770Y-70790950D01*
X157770046Y-70819086D01*
X157770670Y-70820425D01*
X157572362Y-70912898D01*
X157393123Y-71038402D01*
X157238402Y-71193123D01*
X157112898Y-71372362D01*
X157020425Y-71570670D01*
X157019307Y-71574843D01*
X156972079Y-71751101D01*
X156963793Y-71782023D01*
X156944723Y-72000000D01*
X156963793Y-72217977D01*
X156964912Y-72222152D01*
X156964912Y-72222154D01*
X156978735Y-72273740D01*
X157020425Y-72429330D01*
X157112898Y-72627638D01*
X157115379Y-72631181D01*
X157115380Y-72631183D01*
X157128029Y-72649248D01*
X157238402Y-72806877D01*
X157393123Y-72961598D01*
X157572361Y-73087102D01*
X157576272Y-73088926D01*
X157576276Y-73088928D01*
X157614083Y-73106557D01*
X157658832Y-73148285D01*
X157669154Y-73195238D01*
X157670677Y-73195142D01*
X157671100Y-73201874D01*
X157670606Y-73208607D01*
X157680959Y-73259953D01*
X157681993Y-73266069D01*
X157689099Y-73317947D01*
X157686821Y-73318259D01*
X157684690Y-73369063D01*
X157646684Y-73417012D01*
X157633740Y-73424276D01*
X157576279Y-73451071D01*
X157576275Y-73451073D01*
X157572362Y-73452898D01*
X157393123Y-73578402D01*
X157238402Y-73733123D01*
X157191827Y-73799639D01*
X157142964Y-73836461D01*
X157081788Y-73837529D01*
X157040728Y-73812859D01*
X156230799Y-73002930D01*
X156227929Y-72999937D01*
X156220184Y-72991514D01*
X156187516Y-72955988D01*
X156151365Y-72933573D01*
X156143679Y-72928291D01*
X156115170Y-72906651D01*
X156115169Y-72906651D01*
X156109796Y-72902572D01*
X156103525Y-72900089D01*
X156103523Y-72900088D01*
X156094683Y-72896588D01*
X156078958Y-72888679D01*
X156070886Y-72883674D01*
X156070884Y-72883673D01*
X156065150Y-72880118D01*
X156024303Y-72868250D01*
X156015482Y-72865230D01*
X155982206Y-72852056D01*
X155982203Y-72852055D01*
X155975928Y-72849571D01*
X155969215Y-72848865D01*
X155969209Y-72848864D01*
X155959765Y-72847871D01*
X155942496Y-72844483D01*
X155931871Y-72841396D01*
X155931865Y-72841395D01*
X155926888Y-72839949D01*
X155921718Y-72839569D01*
X155921716Y-72839569D01*
X155918489Y-72839332D01*
X155918482Y-72839332D01*
X155916688Y-72839200D01*
X155882446Y-72839200D01*
X155872100Y-72838658D01*
X155832738Y-72834521D01*
X155814262Y-72837646D01*
X155813269Y-72837814D01*
X155796759Y-72839200D01*
X154849500Y-72839200D01*
X154791309Y-72820293D01*
X154755345Y-72770793D01*
X154750500Y-72740200D01*
X154750499Y-71122376D01*
X154750499Y-71118482D01*
X154735646Y-71024696D01*
X154678050Y-70911658D01*
X154588342Y-70821950D01*
X154581405Y-70818415D01*
X154581403Y-70818414D01*
X154482244Y-70767890D01*
X154482243Y-70767890D01*
X154475304Y-70764354D01*
X154467610Y-70763135D01*
X154467609Y-70763135D01*
X154385365Y-70750109D01*
X154385363Y-70750109D01*
X154381519Y-70749500D01*
X153500114Y-70749500D01*
X152618482Y-70749501D01*
X152614639Y-70750110D01*
X152614634Y-70750110D01*
X152577783Y-70755947D01*
X152524696Y-70764354D01*
X152483470Y-70785360D01*
X152418597Y-70818414D01*
X152418595Y-70818415D01*
X152411658Y-70821950D01*
X152321950Y-70911658D01*
X152264354Y-71024696D01*
X152263135Y-71032390D01*
X152263135Y-71032391D01*
X152250109Y-71114634D01*
X152249500Y-71118481D01*
X152249501Y-71966845D01*
X152249501Y-72740200D01*
X152230594Y-72798391D01*
X152181094Y-72834355D01*
X152150501Y-72839200D01*
X141392577Y-72839200D01*
X141334386Y-72820293D01*
X141322573Y-72810204D01*
X134386013Y-65873644D01*
X134358236Y-65819127D01*
X134367807Y-65758695D01*
X134411072Y-65715430D01*
X134430396Y-65708013D01*
X134448752Y-65703095D01*
X134448757Y-65703093D01*
X134452930Y-65701975D01*
X134651239Y-65609502D01*
X134830477Y-65483998D01*
X134985198Y-65329277D01*
X135110702Y-65150038D01*
X135203175Y-64951730D01*
X135204732Y-64952456D01*
X135238240Y-64909568D01*
X135297055Y-64892703D01*
X135354550Y-64913630D01*
X135382686Y-64952354D01*
X135384025Y-64951730D01*
X135476498Y-65150038D01*
X135602002Y-65329277D01*
X135756723Y-65483998D01*
X135935961Y-65609502D01*
X136134270Y-65701975D01*
X136161824Y-65709358D01*
X136341446Y-65757488D01*
X136341448Y-65757488D01*
X136345623Y-65758607D01*
X136563600Y-65777677D01*
X136781577Y-65758607D01*
X136785752Y-65757488D01*
X136785754Y-65757488D01*
X136965376Y-65709358D01*
X136992930Y-65701975D01*
X137191239Y-65609502D01*
X137370477Y-65483998D01*
X137525198Y-65329277D01*
X137650702Y-65150038D01*
X137743175Y-64951730D01*
X137799807Y-64740377D01*
X137809745Y-64626782D01*
X137810310Y-64620327D01*
X137834217Y-64564005D01*
X137886663Y-64532492D01*
X137947615Y-64537825D01*
X137993793Y-64577966D01*
X138007721Y-64622481D01*
X138012191Y-64690689D01*
X138013604Y-64699610D01*
X138061134Y-64886759D01*
X138064154Y-64895287D01*
X138144986Y-65070625D01*
X138149517Y-65078472D01*
X138260948Y-65236144D01*
X138266822Y-65243022D01*
X138405132Y-65377757D01*
X138412155Y-65383444D01*
X138572699Y-65490717D01*
X138580654Y-65495035D01*
X138758046Y-65571249D01*
X138766657Y-65574047D01*
X138834306Y-65589354D01*
X138847203Y-65588169D01*
X138849600Y-65579451D01*
X138849600Y-64367400D01*
X138868507Y-64309209D01*
X138918007Y-64273245D01*
X138948600Y-64268400D01*
X139258600Y-64268400D01*
X139316791Y-64287307D01*
G37*
G04 #@! TD.AperFunction*
G04 #@! TA.AperFunction,Conductor*
G36*
X157096791Y-64287307D02*
G01*
X157132755Y-64336807D01*
X157137600Y-64367400D01*
X157137600Y-65581474D01*
X157141722Y-65594159D01*
X157142893Y-65595010D01*
X157145400Y-65595224D01*
X157145789Y-65595131D01*
X157328626Y-65533066D01*
X157336888Y-65529388D01*
X157505355Y-65435041D01*
X157512809Y-65429918D01*
X157661250Y-65306461D01*
X157667661Y-65300050D01*
X157791118Y-65151609D01*
X157796241Y-65144155D01*
X157890588Y-64975688D01*
X157894266Y-64967426D01*
X157950339Y-64802240D01*
X157986948Y-64753215D01*
X158045381Y-64735070D01*
X158103319Y-64754738D01*
X158114089Y-64764058D01*
X159278604Y-65928573D01*
X159306381Y-65983090D01*
X159307600Y-65998577D01*
X159307600Y-68560117D01*
X159288693Y-68618308D01*
X159239193Y-68654272D01*
X159178007Y-68654272D01*
X159138596Y-68630121D01*
X159006877Y-68498402D01*
X158827639Y-68372898D01*
X158629330Y-68280425D01*
X158542780Y-68257234D01*
X158422154Y-68224912D01*
X158422152Y-68224912D01*
X158417977Y-68223793D01*
X158200000Y-68204723D01*
X157982023Y-68223793D01*
X157977848Y-68224912D01*
X157977846Y-68224912D01*
X157857220Y-68257234D01*
X157770670Y-68280425D01*
X157572362Y-68372898D01*
X157393123Y-68498402D01*
X157238402Y-68653123D01*
X157235923Y-68656664D01*
X157191828Y-68719638D01*
X157142964Y-68756460D01*
X157081787Y-68757528D01*
X157040728Y-68732858D01*
X154253138Y-65945269D01*
X154225361Y-65890752D01*
X154234932Y-65830320D01*
X154278197Y-65787055D01*
X154331770Y-65776642D01*
X154343600Y-65777677D01*
X154561577Y-65758607D01*
X154565752Y-65757488D01*
X154565754Y-65757488D01*
X154745376Y-65709358D01*
X154772930Y-65701975D01*
X154971239Y-65609502D01*
X155150477Y-65483998D01*
X155305198Y-65329277D01*
X155430702Y-65150038D01*
X155523175Y-64951730D01*
X155579807Y-64740377D01*
X155589745Y-64626782D01*
X155590310Y-64620327D01*
X155614217Y-64564005D01*
X155666663Y-64532492D01*
X155727615Y-64537825D01*
X155773793Y-64577966D01*
X155787721Y-64622481D01*
X155792191Y-64690689D01*
X155793604Y-64699610D01*
X155841134Y-64886759D01*
X155844154Y-64895287D01*
X155924986Y-65070625D01*
X155929517Y-65078472D01*
X156040948Y-65236144D01*
X156046822Y-65243022D01*
X156185132Y-65377757D01*
X156192155Y-65383444D01*
X156352699Y-65490717D01*
X156360654Y-65495035D01*
X156538046Y-65571249D01*
X156546657Y-65574047D01*
X156614306Y-65589354D01*
X156627203Y-65588169D01*
X156629600Y-65579451D01*
X156629600Y-64367400D01*
X156648507Y-64309209D01*
X156698007Y-64273245D01*
X156728600Y-64268400D01*
X157038600Y-64268400D01*
X157096791Y-64287307D01*
G37*
G04 #@! TD.AperFunction*
M02*
